
<svg xmlns="http://www.w3.org/2000/svg" version="1.1" xmlns:xlink="http://www.w3.org/1999/xlink" preserveAspectRatio="none" x="0px" y="0px" width="740px" height="740px" viewBox="0 0 740 740">
<defs>
<linearGradient id="Gradient_1" gradientUnits="userSpaceOnUse" x1="-309.96250000000003" y1="0" x2="309.96250000000003" y2="0" spreadMethod="pad">
<stop  offset="0%" stop-color="#C6C6C6"/>

<stop  offset="100%" stop-color="#878787"/>
</linearGradient>

<linearGradient id="Gradient_2" gradientUnits="userSpaceOnUse" x1="274.19999999999993" y1="207.5" x2="546.6" y2="207.5" spreadMethod="pad">
<stop  offset="0%" stop-color="#878787"/>

<stop  offset="100%" stop-color="#575756"/>
</linearGradient>

<linearGradient id="Gradient_3" gradientUnits="userSpaceOnUse" x1="138.6875" y1="-238" x2="-278.08750000000003" y2="0.5" spreadMethod="pad">
<stop  offset="0%" stop-color="#878787"/>

<stop  offset="100%" stop-color="#C6C6C6"/>
</linearGradient>

<linearGradient id="Gradient_4" gradientUnits="userSpaceOnUse" x1="110.22500000000001" y1="-291.9875" x2="-309.825" y2="-51.61250000000001" spreadMethod="pad">
<stop  offset="0%" stop-color="#878787"/>

<stop  offset="100%" stop-color="#C6C6C6"/>
</linearGradient>

<linearGradient id="Gradient_5" gradientUnits="userSpaceOnUse" x1="-70.78750000000001" y1="278.55" x2="-69.5125" y2="1.0500000000000114" spreadMethod="pad">
<stop  offset="0%" stop-color="#B2B2B2"/>

<stop  offset="100%" stop-color="#DADADA"/>
</linearGradient>

<filter id="Filter_1" x="-20%" y="-20%" width="140%" height="140%" color-interpolation-filters="sRGB">
<feColorMatrix in="SourceGraphic" type="matrix" values="1 0 0 0 0 0 1 0 0 0 0 0 1 0 0 0 0 0 0.25 0" result="result1"/>
</filter>

<filter id="Filter_2" x="-20%" y="-20%" width="140%" height="140%" color-interpolation-filters="sRGB">
<feColorMatrix in="SourceGraphic" type="matrix" values="1 0 0 0 0 0 1 0 0 0 0 0 1 0 0 0 0 0 0.18 0" result="result1"/>
</filter>

<filter id="Filter_3" x="-20%" y="-20%" width="140%" height="140%" color-interpolation-filters="sRGB">
<feColorMatrix in="SourceGraphic" type="matrix" values="1 0 0 0 0 0 1 0 0 0 0 0 1 0 0 0 0 0 0.52 0" result="result1"/>
</filter>

<g id="cog_large_0_Layer0_0_FILL">
<path fill="url(#Gradient_1)" stroke="none" d="
M 177.65 -252.1
Q 174.9 -251.85 173.35 -250
L 160.65 -235.6
Q 155.8 -238.95 149.85 -242.6
L 157.9 -260.1
Q 158.9 -262.4 158.05 -264.8 157.15 -267.25 154.95 -268.45 152.75 -269.7 150.3 -269.25 147.7 -268.75 146.25 -266.8
L 135.15 -251.15
Q 130 -253.9 123.7 -257
L 129.8 -275.15
Q 130.6 -277.55 129.45 -279.9 128.3 -282.25 126.05 -283.15 123.75 -284.2 121.3 -283.5 118.85 -282.8 117.6 -280.6
L 108.2 -263.85
Q 103.05 -266 96.15 -268.5
L 100.35 -287.25
Q 100.9 -289.7 99.55 -291.9 98.1 -294.05 95.75 -294.8 93.4 -295.6 91 -294.65 88.6 -293.55 87.6 -291.4
L 80.05 -273.75
Q 74.65 -275.3 67.55 -277.1
L 69.75 -296.15
Q 70.05 -298.55 68.4 -300.7 66.85 -302.75 64.45 -303.2 61.85 -303.75 59.75 -302.55 57.4 -301.3 56.65 -298.95
L 50.9 -280.6
Q 43.85 -281.9 38.2 -282.6
L 38.4 -301.85
Q 38.45 -304.25 36.6 -306.2 34.9 -308 32.35 -308.3 29.85 -308.5 27.8 -307.15 25.65 -305.7 25.15 -303.2
L 21.35 -284.35
Q 13.8 -284.85 8.45 -285
L 6.7 -304.2
Q 6.5 -306.65 4.4 -308.35 2.4 -310 0 -310 -2.55 -310 -4.45 -308.35 -6.5 -306.6 -6.7 -304.2
L -8.5 -285
Q -13.9 -284.85 -21.4 -284.35
L -25.15 -303.2
Q -25.65 -305.65 -27.8 -307.15 -29.95 -308.5 -32.4 -308.3 -34.85 -308 -36.65 -306.2 -38.45 -304.25 -38.45 -301.85
L -38.25 -282.6
Q -43.6 -281.9 -51 -280.6 -56.55 -298.3 -56.75 -298.9 -57.45 -301.3 -59.75 -302.55 -62.05 -303.7 -64.45 -303.2 -66.8 -302.75 -68.45 -300.7 -70.1 -298.55 -69.8 -296.15
L -67.55 -277.1
Q -74.65 -275.3 -80.05 -273.75
L -87.65 -291.4
Q -88.55 -293.55 -91.05 -294.65 -93.4 -295.6 -95.8 -294.8 -98.1 -294.1 -99.55 -291.9 -100.95 -289.6 -100.4 -287.25
L -96.15 -268.5
Q -102.4 -266.25 -108.2 -263.85
L -117.6 -280.6
Q -118.85 -282.8 -121.35 -283.5 -123.75 -284.2 -126.05 -283.15 -128.45 -282.2 -129.55 -279.9 -130.6 -277.45 -129.9 -275.15
L -123.7 -257
Q -130.05 -253.9 -135.15 -251.15
L -146.3 -266.8
Q -147.75 -268.75 -150.3 -269.25 -152.85 -269.7 -154.95 -268.45 -157.15 -267.3 -158.05 -264.8 -158.95 -262.35 -157.95 -260.1
L -149.85 -242.6
Q -155.15 -239.35 -160.65 -235.6
L -173.4 -250
Q -175 -251.85 -177.65 -252.1 -180.15 -252.25 -182.2 -250.8 -184.3 -249.3 -184.85 -246.85 -185.5 -244.25 -184.2 -242.2
L -174.4 -225.6
Q -179.1 -221.95 -184.4 -217.5
L -198.6 -230.55
Q -200.4 -232.25 -203.05 -232.15 -205.5 -232.05 -207.45 -230.35 -209.3 -228.65 -209.6 -226.15 -209.95 -223.55 -208.5 -221.6
L -197.05 -206.1
Q -201.05 -202.35 -206.1 -197.05
L -221.6 -208.55
Q -223.5 -209.95 -226.2 -209.6 -228.7 -209.25 -230.35 -207.45 -232.05 -205.5 -232.15 -203.05 -232.25 -200.4 -230.55 -198.6
L -217.55 -184.4
Q -221.4 -179.8 -225.6 -174.45
L -242.2 -184.25
Q -244.35 -185.45 -246.9 -184.8 -249.3 -184.3 -250.8 -182.2 -252.35 -180.1 -252.1 -177.65 -251.95 -175 -250.05 -173.4
L -235.6 -160.65
Q -240.4 -153.55 -242.65 -149.9
L -260.1 -157.9
Q -262.3 -158.9 -264.8 -158.05 -267.2 -157.15 -268.5 -155 -269.7 -152.95 -269.3 -150.3 -268.8 -147.8 -266.8 -146.3
L -251.15 -135.2
Q -253.9 -130.05 -257 -123.75
L -275.2 -129.85
Q -277.5 -130.6 -279.9 -129.5 -282.2 -128.35 -283.2 -126.05 -284.2 -123.85 -283.5 -121.35 -282.75 -118.85 -280.65 -117.6
L -263.85 -108.2
Q -266.3 -102.25 -268.5 -96.15
L -287.2 -100.4
Q -289.65 -100.9 -291.85 -99.5 -294.05 -98.2 -294.8 -95.8 -295.65 -93.35 -294.6 -91.05 -293.6 -88.6 -291.4 -87.65
L -273.75 -80.05
Q -275.5 -74.25 -277.05 -67.55
L -296.15 -69.8
Q -298.65 -70.1 -300.7 -68.45 -302.65 -66.9 -303.25 -64.45 -303.75 -62.05 -302.55 -59.75 -301.35 -57.45 -298.95 -56.65
L -280.6 -50.95
Q -281.6 -45.8 -282.6 -38.25
L -301.8 -38.45
Q -304.3 -38.45 -306.25 -36.65 -308 -34.9 -308.3 -32.4 -308.6 -29.95 -307.1 -27.8 -305.7 -25.65 -303.25 -25.15
L -284.35 -21.35
Q -284.85 -15.35 -285 -8.5
L -304.2 -6.7
Q -306.55 -6.5 -308.35 -4.45 -310 -2.5 -310 0 -310 2.5 -308.35 4.45 -306.55 6.5 -304.2 6.7
L -285 8.5
Q -284.85 15.35 -284.35 21.35
L -303.25 25.15
Q -305.7 25.65 -307.1 27.8 -308.6 29.85 -308.3 32.4 -308.1 34.8 -306.25 36.7 -304.3 38.45 -301.8 38.45
L -282.6 38.25
Q -281.6 45.8 -280.6 50.95
L -298.95 56.7
Q -301.35 57.45 -302.55 59.75 -303.75 62.05 -303.25 64.45 -302.75 66.95 -300.7 68.45 -298.65 70.1 -296.15 69.8
L -277.05 67.55
Q -275.8 72.95 -273.75 80.05
L -291.4 87.65
Q -293.6 88.6 -294.6 91.05 -295.65 93.35 -294.8 95.8 -294.05 98.15 -291.85 99.55 -289.6 100.9 -287.2 100.4
L -268.5 96.15
Q -266.3 102.25 -263.85 108.2
L -280.65 117.6
Q -282.75 118.85 -283.5 121.35 -284.2 123.85 -283.2 126.05 -282.2 128.4 -279.9 129.5 -277.5 130.6 -275.2 129.85
L -257 123.75
Q -253.9 130.05 -251.15 135.2
L -266.8 146.3
Q -268.8 147.7 -269.3 150.3 -269.7 152.9 -268.5 155.05 -267.2 157.15 -264.8 158.05 -262.3 158.9 -260.1 157.9
L -242.65 149.9
Q -239.75 154.55 -235.6 160.65
L -250.05 173.4
Q -251.95 175.1 -252.1 177.65 -252.35 180.15 -250.8 182.2 -249.3 184.3 -246.9 184.8 -244.35 185.45 -242.2 184.25
L -225.6 174.45
Q -221.4 179.8 -217.55 184.4
L -230.55 198.6
Q -232.25 200.4 -232.15 203.05 -232.05 205.5 -230.35 207.45 -228.7 209.3 -226.2 209.6 -223.6 210 -221.6 208.55
L -206.1 197.05
Q -201.05 202.35 -197.05 206.1
L -208.5 221.6
Q -209.95 223.55 -209.6 226.2 -209.3 228.65 -207.45 230.35 -205.5 232.05 -203.05 232.15 -200.4 232.25 -198.6 230.55
L -184.4 217.5
Q -179.1 221.95 -174.4 225.6
L -184.2 242.2
Q -185.5 244.25 -184.85 246.85 -184.3 249.3 -182.2 250.8 -180.15 252.25 -177.65 252.1 -175 251.85 -173.4 250.05
L -160.65 235.6
Q -155.15 239.35 -149.85 242.6
L -157.95 260.1
Q -158.95 262.35 -158.05 264.8 -157.25 267.25 -154.95 268.45 -152.85 269.75 -150.3 269.25 -147.7 268.75 -146.3 266.8
L -135.15 251.15
Q -130.05 253.9 -123.7 257
L -129.9 275.15
Q -130.6 277.45 -129.55 279.9 -128.45 282.25 -126.05 283.15 -123.75 284.2 -121.35 283.5 -118.85 282.8 -117.6 280.6
L -108.2 263.85
Q -102.4 266.25 -96.15 268.5
L -100.4 287.25
Q -100.9 289.65 -99.55 291.9 -98.15 294.05 -95.8 294.85 -93.35 295.6 -91.05 294.65 -88.55 293.55 -87.65 291.4
L -80.05 273.75
Q -74.15 275.45 -67.55 277.1
L -69.8 296.15
Q -70.1 298.55 -68.45 300.7 -66.8 302.75 -64.45 303.2 -61.95 303.75 -59.75 302.55 -57.45 301.3 -56.75 298.95
L -51 280.6
Q -45.05 281.75 -38.25 282.6
L -38.45 301.85
Q -38.45 304.35 -36.65 306.2 -34.95 308 -32.4 308.3 -29.85 308.55 -27.8 307.15 -25.65 305.65 -25.15 303.2
L -21.4 284.35
Q -13.85 284.9 -8.5 285
L -6.7 304.2
Q -6.5 306.6 -4.45 308.35 -2.55 310 0 310 2.4 310 4.4 308.35 6.5 306.65 6.7 304.2
L 8.45 285
Q 13.8 284.9 21.35 284.35
L 25.15 303.2
Q 25.65 305.7 27.8 307.15 29.85 308.55 32.35 308.3 34.9 308 36.6 306.2 38.45 304.25 38.4 301.85
L 38.2 282.6
Q 45.2 281.7 50.9 280.6
L 56.65 298.95
Q 57.4 301.3 59.75 302.55 61.85 303.75 64.45 303.2 66.8 302.75 68.45 300.7 70.05 298.6 69.75 296.15
L 67.55 277.1
Q 74.65 275.3 80.05 273.75
L 87.6 291.4
Q 88.6 293.55 91 294.65 93.35 295.6 95.75 294.85 98.15 294.05 99.55 291.9 100.85 289.75 100.35 287.25
L 96.15 268.5
Q 102.55 266.2 108.2 263.9
L 117.6 280.65
Q 118.85 282.8 121.3 283.5 123.75 284.2 126.05 283.15 128.35 282.25 129.45 279.9 130.6 277.55 129.8 275.15
L 123.7 257
Q 130 253.9 135.15 251.15
L 146.3 266.8
Q 147.65 268.75 150.3 269.25 152.75 269.75 154.95 268.45 157.15 267.25 158.05 264.8 158.95 262.35 157.9 260.1
L 149.85 242.6
Q 155.8 238.95 160.65 235.6
L 173.35 250.05
Q 174.95 251.85 177.65 252.1 180.15 252.25 182.2 250.8 184.2 249.3 184.85 246.85 185.45 244.3 184.2 242.15
L 174.35 225.6
Q 179.2 221.9 184.35 217.5
L 198.55 230.55
Q 200.4 232.25 203 232.15 205.55 232.05 207.4 230.35 209.3 228.7 209.6 226.15 209.95 223.5 208.45 221.6
L 197.05 206.1
Q 200.75 202.6 206.1 197.05
L 221.6 208.55
Q 223.6 210 226.2 209.6 228.6 209.3 230.35 207.45 232.05 205.45 232.05 203.05 232.15 200.4 230.5 198.6
L 217.45 184.4
Q 221.95 179.15 225.6 174.45
L 242.15 184.25
Q 244.3 185.45 246.8 184.8 249.3 184.3 250.8 182.2 252.2 180.25 252.05 177.65 251.8 175 250 173.4
L 235.55 160.65
Q 238.75 155.95 242.6 149.9
L 260.1 157.9
Q 262.35 158.95 264.8 158.05 267.1 157.2 268.45 155.05 269.7 152.8 269.25 150.3 268.85 147.8 266.7 146.3
L 251.15 135.2
Q 253.9 130.05 256.95 123.75
L 275.2 129.85
Q 277.5 130.6 279.9 129.5 282.2 128.35 283.15 126.05 284.2 123.75 283.5 121.35 282.65 118.8 280.6 117.6
L 263.85 108.2
Q 266.3 102.25 268.5 96.15
L 287.2 100.4
Q 289.6 100.9 291.85 99.5 293.95 98.25 294.8 95.8 295.5 93.35 294.6 91.05 293.6 88.6 291.3 87.65
L 273.75 80.05
Q 275.3 74.65 277.05 67.6
L 296.1 69.8
Q 298.65 70.1 300.65 68.45 302.65 67 303.2 64.45 303.75 61.95 302.5 59.75 301.3 57.45 298.95 56.65
L 280.6 51
Q 281.65 45.15 282.55 38.25
L 301.8 38.45
Q 304.35 38.45 306.15 36.65 308 34.95 308.3 32.4 308.55 29.85 307.1 27.8 305.65 25.65 303.2 25.15
L 284.35 21.35
Q 284.9 13.85 285 8.5
L 304.2 6.7
Q 306.55 6.5 308.35 4.45 310 2.45 310 0 310 -2.5 308.35 -4.45 306.55 -6.5 304.2 -6.7
L 285 -8.5
Q 284.9 -13.85 284.35 -21.35
L 303.2 -25.15
Q 305.65 -25.65 307.1 -27.8 308.55 -29.85 308.3 -32.4 308 -34.95 306.15 -36.65 304.35 -38.45 301.8 -38.45
L 282.55 -38.25
Q 281.65 -45.2 280.6 -50.95
L 298.95 -56.65
Q 301.3 -57.45 302.5 -59.75 303.75 -61.95 303.2 -64.45 302.7 -66.9 300.65 -68.45 298.65 -70.1 296.1 -69.8
L 277.05 -67.55
Q 275.4 -74.45 273.75 -80.05
L 291.3 -87.65
Q 293.6 -88.6 294.6 -91.05 295.5 -93.35 294.8 -95.8 293.95 -98.25 291.85 -99.5 289.65 -100.9 287.2 -100.4
L 268.5 -96.15
Q 266.3 -102.25 263.85 -108.2
L 280.6 -117.6
Q 282.7 -118.8 283.45 -121.35 284.2 -123.75 283.15 -126.05 282.1 -128.4 279.9 -129.5 277.5 -130.6 275.2 -129.85
L 256.95 -123.75
Q 253.9 -130.05 251.15 -135.2
L 266.7 -146.3
Q 268.85 -147.8 269.25 -150.3 269.75 -152.85 268.45 -155 267.15 -157.15 264.8 -158.05 262.25 -158.9 260.05 -157.9
L 242.6 -149.9
Q 238.75 -155.95 235.55 -160.65
L 250.05 -173.4
Q 251.8 -175 252.05 -177.65 252.2 -180.2 250.8 -182.2 249.3 -184.3 246.8 -184.8 244.3 -185.45 242.15 -184.25
L 225.6 -174.45
Q 221.95 -179.15 217.45 -184.4
L 230.5 -198.6
Q 232.15 -200.4 232.05 -203.05 231.95 -205.55 230.35 -207.45 228.6 -209.3 226.15 -209.6 223.5 -209.95 221.6 -208.55
L 206.1 -197.05
Q 200.75 -202.6 197.05 -206.1
L 208.45 -221.6
Q 209.95 -223.5 209.6 -226.15 209.2 -228.75 207.4 -230.35 205.55 -232.05 202.95 -232.15 200.4 -232.25 198.55 -230.55
L 184.4 -217.5
Q 178.9 -222.1 174.35 -225.6
L 184.2 -242.2
Q 185.45 -244.25 184.85 -246.85 184.2 -249.3 182.2 -250.8 180.15 -252.25 177.65 -252.1 Z"/>
</g>

<g id="innerWorkings_0_Layer1_0_MEMBER_0_FILL">
<path fill="url(#Gradient_2)" stroke="none" d="
M 493.85 123.25
Q 495.5 121.85 495.65 119.55 495.8 117.3 494.5 115.55 493.3 113.85 491.05 113.25 488.75 112.75 486.95 113.8
L 472.45 122.45
Q 468.95 117.9 465.35 113.7
L 476.75 101.3
Q 478.2 99.75 478.1 97.4 478.1 95.2 476.6 93.55 475.1 91.9 472.9 91.6 470.5 91.35 468.9 92.6
L 455.4 102.65
Q 451.05 98.15 447.4 94.75
L 457.45 81.2
Q 458.75 79.4 458.4 77.2 458.1 75 456.45 73.5 454.8 72.1 452.6 72 450.35 71.9 448.7 73.4
L 436.35 84.8
Q 431.35 80.7 427.55 77.75
L 436.1 63.25
Q 437.25 61.35 436.65 59.15 436.1 57 434.35 55.7 432.55 54.45 430.35 54.6 428.1 54.75 426.6 56.4
L 415.5 69.05
Q 410.5 65.65 406.05 62.95
L 413.05 47.65
Q 413.9 45.7 413.15 43.5 412.35 41.4 410.5 40.35 408.6 39.25 406.4 39.65 404.1 40.05 402.85 41.8
L 393.15 55.55
Q 387.55 52.65 383.1 50.5
L 388.45 34.5
Q 389.1 32.5 388.1 30.4 387.15 28.4 385.15 27.5 383.1 26.6 381 27.25 378.8 27.9 377.7 29.8
L 369.45 44.5
Q 363.8 42.2 358.95 40.5
L 362.6 24.05
Q 363.05 21.85 361.85 20 360.65 18.05 358.6 17.4 356.45 16.7 354.45 17.6 352.25 18.55 351.45 20.45
L 344.75 35.95
Q 339.25 34.35 333.9 33.1
L 335.8 16.3
Q 336.1 14.2 334.65 12.35 333.3 10.6 331.1 10.15 329 9.7 327 10.75 324.9 12 324.35 13.95
L 319.3 30.05
Q 313.25 29 308.2 28.3
L 308.35 11.45
Q 308.35 9.25 306.75 7.65 305.3 6.05 303.05 5.8 300.85 5.6 299 6.85 297.1 8.2 296.7 10.25
L 293.4 26.8
Q 287.8 26.35 282.15 26.2
L 280.55 9.45
Q 280.35 7.4 278.55 5.85 276.85 4.4 274.65 4.4
L 274.2 4.45 274.75 275.5 510.5 410.55
Q 511.55 408.65 511.15 406.5 510.75 404.25 509 403
L 495.25 393.3
Q 498.1 387.95 500.3 383.25
L 516.3 388.55
Q 518.3 389.25 520.45 388.25 522.4 387.35 523.3 385.25 524.2 383.2 523.6 381.1 522.95 378.95 521.05 377.85
L 506.35 369.6
Q 508.65 363.95 510.35 359.1
L 526.85 362.75
Q 528.85 363.2 530.9 362 532.8 360.8 533.45 358.7 534.1 356.65 533.3 354.6 532.35 352.4 530.45 351.6
L 514.95 344.95
Q 516.35 340.25 517.85 334.05
L 534.6 335.95
Q 536.7 336.25 538.55 334.8 540.25 333.5 540.8 331.25 541.25 329.1 540.15 327.15 539.05 325.15 537 324.5
L 520.9 319.5
Q 522 313.35 522.65 308.4
L 539.5 308.5
Q 541.65 308.55 543.35 306.95 545 305.3 545.2 303.2 545.45 301.05 544.15 299.2 542.85 297.3 540.75 296.85
L 524.2 293.6
Q 524.5 289.85 524.8 282.35
L 541.55 280.7
Q 543.65 280.55 545.2 278.75 546.6 277.1 546.6 274.85 546.6 272.65 545.15 270.95 543.65 269.2 541.55 269
L 524.8 267.5
Q 524.6 261.9 524.2 256.25
L 540.65 252.85
Q 542.8 252.4 544.05 250.5 545.35 248.65 545.1 246.5 544.9 244.35 543.25 242.8 541.55 241.2 539.4 241.2
L 522.6 241.45
Q 521.85 235.9 520.8 230.35
L 536.85 225.25
Q 538.95 224.6 540 222.55 541.05 220.6 540.6 218.45 540.15 216.3 538.35 214.95 536.55 213.6 534.4 213.8
L 517.7 215.8
Q 516.55 211.05 514.75 204.95
L 530.2 198.2
Q 532.15 197.35 533.05 195.2 533.85 193.1 533.2 191.05 532.55 189 530.6 187.8 528.65 186.6 526.55 187.05
L 510.15 190.8
Q 508 184.95 506.05 180.3
L 520.7 172
Q 522.6 170.9 523.25 168.7 523.85 166.7 522.95 164.6 522.05 162.55 520.05 161.6 518.05 160.65 515.95 161.3
L 499.95 166.75
Q 498.1 162.9 494.85 156.75
L 508.55 146.95
Q 510.35 145.6 510.75 143.4 511.15 141.3 510 139.3 508.95 137.45 506.85 136.7 504.7 135.9 502.7 136.8
L 487.35 143.9
Q 483.65 138 481.2 134.45
L 493.85 123.25 Z"/>
</g>

<g id="innerWorkings_0_Layer1_0_MEMBER_1_MEMBER_0_MEMBER_0_FILL">
<path fill="#3C3C3B" stroke="none" d="
M 678.1 343.85
L 672.2 338.2 644.9 365.65
Q 666.9 386.05 683.45 411.25 702.75 440.6 713 473.7 723.15 506.6 723.8 541.1
L 762.5 542.75
Q 762.1 502.2 750.35 463.45 738.45 424.5 715.8 390 699.2 364.8 678.1 343.85 Z"/>
</g>

<g id="FlashAICB_Layer_1__Path__0_Layer0_0_FILL">
<path fill="#595A59" stroke="none" d="
M 7.4 14.85
Q 10.45 14.85 12.6 12.65 14.75 10.5 14.75 7.45 14.75 4.4 12.6 2.2 10.45 0 7.4 0 4.35 0 2.15 2.2 0 4.35 0 7.45 0 10.5 2.15 12.65 4.35 14.85 7.4 14.85 Z"/>
</g>

<g id="FlashAICB_Layer_1__Group__1_1_0_Layer0_0_MEMBER_0_FILL">
<path fill="#AEAEAE" stroke="none" d="
M 5.5 0.7
Q 4.4 -0.15 3.05 0.05
L 4.65 6.75
Q 5.85 6.3 6.45 5.2 7.1 4.1 6.9 2.85 6.65 1.5 5.5 0.7 Z"/>
</g>

<g id="FlashAICB_Layer_1__Group__1_1_0_Layer0_0_MEMBER_1_FILL">
<path fill="#AEAEAE" stroke="none" d="
M 0.5 1.75
Q -0.15 2.85 0.05 4.1 0.3 5.45 1.45 6.25 2.55 7.1 3.9 6.9
L 2.3 0.2
Q 1.1 0.65 0.5 1.75 Z"/>
</g>

<g id="FlashAICB_Layer_1__Group__2_0_Layer0_0_MEMBER_0_FILL">
<path fill="#CDCDCD" stroke="none" d="
M 17.9 3.1
Q 14.8 0 10.5 0 6.15 0 3.1 3.1 0 6.15 0 10.5 0 14.8 3.1 17.9 6.15 20.95 10.5 20.95 14.8 20.95 17.9 17.9 20.95 14.8 20.95 10.5 20.95 6.15 17.9 3.1
M 16.6 4.35
Q 19.15 6.9 19.15 10.5 19.15 14.05 16.6 16.6 14.05 19.15 10.5 19.15 6.9 19.15 4.35 16.6 1.8 14.05 1.8 10.5 1.8 6.9 4.35 4.35 6.9 1.8 10.5 1.8 14.05 1.8 16.6 4.35 Z"/>
</g>

<g id="FlashAICB_Layer_1__Path__0_0_Layer0_0_FILL">
<path fill="#595A59" stroke="none" d="
M 7.4 14.8
Q 10.45 14.8 12.6 12.65 14.8 10.45 14.8 7.4 14.8 4.35 12.6 2.15 10.45 0 7.4 0 4.35 0 2.15 2.15 0 4.35 0 7.4 0 10.5 2.15 12.65 4.35 14.8 7.4 14.8 Z"/>
</g>

<g id="FlashAICB_Layer_1__Group__1_2_0_Layer0_0_MEMBER_0_FILL">
<path fill="#AEAEAE" stroke="none" d="
M 6.9 2.8
Q 6.65 1.45 5.5 0.65 4.4 -0.15 3.05 0
L 4.65 6.7
Q 5.85 6.3 6.5 5.2 7.15 4.1 6.9 2.8 Z"/>
</g>

<g id="FlashAICB_Layer_1__Group__1_2_0_Layer0_0_MEMBER_1_FILL">
<path fill="#AEAEAE" stroke="none" d="
M 0.5 1.7
Q -0.15 2.85 0.1 4.05 0.3 5.4 1.45 6.25 2.55 7.05 3.9 6.9
L 2.3 0.2
Q 1.15 0.6 0.5 1.7 Z"/>
</g>

<g id="FlashAICB_Layer_1__Group__4_0_Layer0_0_MEMBER_0_FILL">
<path fill="#CDCDCD" stroke="none" d="
M 17.9 3.1
Q 14.85 0 10.5 0 6.15 0 3.1 3.1 0 6.15 0 10.5 0 14.85 3.1 17.95 6.15 21 10.5 21 14.85 21 17.9 17.95 20.95 14.85 20.95 10.5 20.95 6.15 17.9 3.1
M 16.6 4.4
Q 19.15 6.9 19.15 10.5 19.15 14.05 16.6 16.6 14.05 19.15 10.5 19.15 6.9 19.15 4.4 16.6 1.85 14.05 1.85 10.5 1.85 6.9 4.4 4.4 6.9 1.85 10.5 1.85 14.05 1.85 16.6 4.4 Z"/>
</g>

<g id="innerWorkings_0_Layer1_0_MEMBER_2_FILL">
<path fill="url(#Gradient_3)" stroke="none" d="
M 115.6 -200.75
Q 105.85 -206.35 97.1 -210.35 54.3 -230.2 7.5 -231.75 -37.9 -233.3 -80.5 -217.75 -123.1 -202 -156.65 -171.75 -191.4 -140.15 -211.25 -97.35 -221.9 -74.3 -227.35 -49.65 -232.8 -25.05 -232.8 0.05
L -276.45 0
Q -277.4 0.1 -277.7 0.1 -277.85 0.05 -277.9 0.05 -277.9 0.6 -277.95 1.05
L -224.3 1.2
Q -222.25 1.1 -220.2 1.2
L -0.4 1.55 138.25 -238.7
Q 137.95 -238.85 137.65 -239.05
L 115.6 -200.75 Z"/>

<path fill="url(#Gradient_4)" stroke="none" d="
M 42.05 -273.5
L 42.1 -273.45 35.9 -274.35 35.95 -274.35
Q 36.1 -276.25 35 -277.75 33.75 -279.25 31.85 -279.55 29.95 -279.7 28.45 -278.5 26.9 -277.35 26.75 -275.45
L 26.8 -275.35 20.6 -275.95 20.6 -276
Q 20.75 -277.9 19.45 -279.3 18.2 -280.7 16.3 -280.85 14.35 -281 12.9 -279.7 11.45 -278.5 11.4 -276.5
L 11.35 -276.45 5.25 -276.6 5.2 -276.65
Q 5.25 -278.6 3.9 -279.9 2.55 -281.35 0.6 -281.4 -1.3 -281.35 -2.7 -280.05 -4.05 -278.65 -4.05 -276.75
L -10.15 -276.55 -10.2 -276.65
Q -10.35 -278.5 -11.75 -279.85 -13.15 -281.15 -15 -281 -17 -280.9 -18.25 -279.45 -19.55 -277.95 -19.45 -276.15
L -25.65 -275.6 -25.65 -275.65
Q -25.75 -277.55 -27.25 -278.75 -28.8 -280 -30.65 -279.8 -32.6 -279.55 -33.75 -278.05 -35 -276.55 -34.8 -274.7
L -34.8 -274.6 -40.9 -273.85
Q -41.2 -275.75 -42.7 -276.8 -44.3 -278 -46.2 -277.75 -48.05 -277.35 -49.25 -275.8 -50.35 -274.2 -50 -272.35
L -49.95 -272.35 -56.1 -271.15 -56.1 -271.2
Q -56.45 -273.1 -58.1 -274.1 -59.7 -275.2 -61.55 -274.7 -63.5 -274.3 -64.5 -272.7 -65.55 -271.05 -65.1 -269.25
L -65.05 -269.15 -71.1 -267.65 -71.15 -267.75
Q -71.6 -269.6 -73.3 -270.5 -75 -271.45 -76.8 -270.9 -78.65 -270.35 -79.55 -268.65 -80.5 -267.1 -80 -265.2
L -79.95 -265.2 -85.85 -263.3 -85.9 -263.4
Q -86.5 -265.15 -88.25 -266.05 -89.95 -266.9 -91.8 -266.25 -93.55 -265.65 -94.4 -263.9 -95.3 -262.15 -94.6 -260.35
L -94.65 -260.3 -100.4 -258.2 -100.35 -258.25
Q -101.2 -260 -103 -260.75 -104.7 -261.5 -106.45 -260.75 -108.2 -260 -108.95 -258.3 -109.7 -256.5 -108.95 -254.65
L -114.6 -252.25
Q -115.5 -254 -117.25 -254.7 -119.1 -255.3 -120.8 -254.5 -122.55 -253.7 -123.2 -251.85 -123.85 -250.05 -123.05 -248.3
L -122.95 -248.2
Q -124.8 -247.35 -128.45 -245.5
L -128.5 -245.55
Q -129.45 -247.2 -131.3 -247.7 -133.05 -248.25 -134.75 -247.35 -136.4 -246.5 -137 -244.65 -137.5 -242.75 -136.6 -241.1
L -136.55 -241.05 -141.95 -237.95 -141.9 -238
Q -142.95 -239.65 -144.85 -240.05 -146.75 -240.5 -148.3 -239.5 -150 -238.55 -150.3 -236.65 -150.85 -234.75 -149.8 -233.15
L -149.75 -233.1
Q -153.3 -230.9 -154.95 -229.8
L -155 -229.8
Q -156.1 -231.35 -158 -231.65 -159.9 -232.05 -161.4 -230.95 -163.05 -229.8 -163.3 -227.95 -163.6 -226.05 -162.6 -224.45
L -162.5 -224.4 -167.55 -220.8 -167.55 -220.85
Q -168.7 -222.35 -170.6 -222.5 -172.5 -222.75 -174.05 -221.6 -175.55 -220.4 -175.75 -218.55 -176 -216.6 -174.8 -215.1
L -174.8 -215.05 -179.55 -211.15 -179.6 -211.2
Q -180.9 -212.65 -182.75 -212.75 -184.7 -212.9 -186.1 -211.6 -187.5 -210.35 -187.7 -208.35 -187.9 -206.55 -186.6 -205.05
L -186.55 -205.05
Q -188.05 -203.7 -191.05 -200.85
L -191.1 -200.85
Q -192.4 -202.3 -194.25 -202.3 -196.15 -202.3 -197.6 -201 -199 -199.65 -199 -197.7 -199 -195.8 -197.65 -194.45
L -197.6 -194.45 -201.85 -189.95 -201.85 -190
Q -203.3 -191.25 -205.2 -191.15 -207.2 -191.05 -208.5 -189.65 -209.8 -188.25 -209.7 -186.4 -209.6 -184.5 -208.15 -183.2
L -208.15 -183.1 -212.15 -178.5 -212.2 -178.45
Q -213.75 -179.7 -215.65 -179.45 -217.55 -179.3 -218.7 -177.85 -219.95 -176.35 -219.8 -174.45 -219.6 -172.5 -218.1 -171.3
L -218 -171.3 -221.85 -166.4 -221.85 -166.5
Q -223.45 -167.6 -225.3 -167.25 -227.2 -166.95 -228.3 -165.4 -229.4 -163.8 -229.15 -161.95 -228.85 -160.05 -227.25 -159
L -227.25 -158.9 -230.8 -153.9
Q -232.4 -154.9 -234.3 -154.5 -236.1 -154.15 -237.2 -152.5 -238.2 -150.9 -237.8 -149 -237.4 -147.2 -235.75 -146.1
L -235.7 -146.1 -238.95 -140.8 -239 -140.85
Q -240.7 -141.8 -242.5 -141.25 -244.35 -140.85 -245.3 -139.15 -246.2 -137.45 -245.8 -135.65 -245.25 -133.8 -243.65 -132.85
L -243.55 -132.8 -246.5 -127.4 -246.5 -127.45
Q -248.2 -128.25 -250 -127.6 -251.8 -127.1 -252.7 -125.35 -253.5 -123.75 -253 -121.9 -252.5 -120.15 -250.85 -119.3
L -250.6 -119.15 -250.6 -119.05 -253.15 -113.55 -253.25 -113.5
Q -255 -114.35 -256.75 -113.55 -258.5 -112.9 -259.3 -111.1 -259.95 -109.5 -259.45 -107.85 -258.85 -106.15 -257.4 -105.25
L -256.85 -105.1 -256.9 -105 -259.1 -99.25 -259.15 -99.3
Q -261 -100 -262.75 -99.2 -264.5 -98.3 -265.15 -96.55 -265.7 -94.95 -265.1 -93.35 -264.5 -91.8 -263.05 -91
L -262.35 -90.6 -262.3 -90.6
Q -263.65 -86.75 -264.25 -84.8
L -264.3 -84.8
Q -266.1 -85.4 -267.9 -84.4 -269.55 -83.55 -270 -81.7 -270.5 -80.2 -269.9 -78.65 -269.3 -77.15 -267.95 -76.4 -267.35 -76.1 -267 -75.95
L -266.95 -76 -268.65 -70.05
Q -270.45 -70.45 -272.15 -69.5 -273.75 -68.45 -274.2 -66.65 -274.55 -65.1 -273.9 -63.65 -273.4 -62.25 -272.05 -61.55 -271.5 -61.15 -270.8 -61.05
L -270.75 -60.95
Q -270.95 -60.15 -271.15 -59.3
L -271.85 -56.3
Q -272 -55.65 -272.1 -55.05 -274 -55.35 -275.6 -54.25 -277.15 -53.15 -277.5 -51.3 -277.8 -49.85 -277.15 -48.5 -276.5 -47.2 -275.3 -46.45 -274.6 -46.05 -273.85 -45.95
L -273.75 -45.85 -274.65 -39.85 -274.75 -39.85
Q -274.8 -39.8 -274.85 -39.9 -276.7 -40.1 -278.15 -38.9 -279.75 -37.7 -279.95 -35.85 -280.1 -34.45 -279.45 -33.2 -278.9 -31.95 -277.7 -31.25 -277.05 -30.9 -276.1 -30.6
L -275.9 -30.7 -276.45 -24.5 -276.6 -24.5
Q -276.6 -24.55 -276.7 -24.5 -278.5 -24.6 -279.9 -23.4 -281.35 -22.15 -281.5 -20.25 -281.6 -18.95 -280.95 -17.7 -280.3 -16.5 -279.15 -15.9 -278.5 -15.45 -277.45 -15.35 -277.3 -15.25 -277.2 -15.3
L -277.4 -9.15 -277.45 -9.2
Q -277.6 -9.15 -277.7 -9.2 -279.45 -9.1 -280.75 -7.85 -282.15 -6.5 -282.2 -4.6 -282.15 -1.95 -279.85 -0.6 -279.05 0.1 -277.9 0.05 -277.85 0.05 -277.7 0.1 -277.4 0.1 -276.45 0
L -232.8 0.05
Q -232.8 -25.05 -227.35 -49.65 -221.9 -74.3 -211.25 -97.35 -191.4 -140.15 -156.65 -171.75 -123.1 -202 -80.5 -217.75 -37.9 -233.3 7.5 -231.75 54.3 -230.2 97.1 -210.35 105.85 -206.35 115.6 -200.75
L 137.65 -239.05 138 -239.6 137.4 -239.95 137.45 -239.95
Q 138.35 -241.65 137.85 -243.5 137.35 -245.3 135.65 -246.2 134 -247.15 132.1 -246.65 130.3 -246.1 129.4 -244.5
L 129.3 -244.45 123.85 -247.2 123.9 -247.3
Q 124.7 -249 124.1 -250.75 123.4 -252.6 121.7 -253.45 120 -254.25 118.15 -253.6 116.4 -253 115.6 -251.25
L 109.9 -253.75 109.95 -253.8
Q 110.65 -255.5 109.9 -257.4 109.15 -259.1 107.4 -259.85 105.65 -260.6 103.85 -259.85 102.1 -259.1 101.45 -257.3
L 95.65 -259.5 95.65 -259.6
Q 96.2 -261.35 95.45 -263.1 94.6 -264.8 92.85 -265.45 91 -266.05 89.25 -265.2 87.6 -264.4 86.95 -262.6
L 86.9 -262.55 81.1 -264.45 81.05 -264.5
Q 81.65 -266.35 80.7 -268.05 79.7 -269.7 77.9 -270.25
L 77.9 -270.15
Q 76.1 -270.75 74.4 -269.8 72.7 -268.9 72.15 -267.1
L 72.1 -267.05 66.2 -268.55 66.15 -268.6
Q 66.6 -270.5 65.7 -272.1 64.6 -273.7 62.7 -274.15 60.85 -274.6 59.25 -273.6 57.55 -272.55 57.25 -270.7
L 57.15 -270.7 51.1 -271.9 51.1 -271.95
Q 51.45 -273.85 50.3 -275.35 49.3 -276.95 47.35 -277.2 45.5 -277.6 43.95 -276.55 42.35 -275.4 42.05 -273.5 Z"/>
</g>

<g id="innerWorkings_0_Layer1_0_MEMBER_3_FILL">
<path fill="url(#Gradient_5)" stroke="none" d="
M -231.2 -0.3
L -277.1 -0.35
Q -277.15 41.9 -264.75 82.1 -251.9 123.6 -226.75 159.55 -196.05 203.15 -151.85 232.25 -109.15 260.15 -59.1 271.2 -9.3 282.1 41.2 274.75 92.25 267.2 138.65 240.55
L 0.45 0.05 -231.2 -0.3 Z"/>
</g>

<g id="disk_0_Layer0_0_FILL">
<path fill="#C6C6C6" stroke="none" d="
M 173.55 -217.15
Q 169.7 -217.15 167.2 -214.65
L 160.6 -208.15
Q 150.95 -215.65 140.35 -222.35
L 144.2 -230.8
Q 145.7 -234 144.4 -237.6 143.2 -241.05 140.05 -242.9 136.8 -244.75 133.25 -244.05 129.5 -243.4 127.45 -240.45
L 122.05 -232.85
Q 111.25 -238.6 99.65 -243.35
L 102 -252.35
Q 102.9 -255.8 101 -259.1 99.15 -262.35 95.8 -263.6 92.35 -264.75 88.9 -263.5 85.4 -262.2 83.8 -259
L 79.8 -250.55
Q 68.6 -254.15 55.9 -256.9
L 56.7 -266.25
Q 57 -269.7 54.5 -272.75 52.2 -275.6 48.65 -276.2 45 -276.85 41.85 -274.95 38.6 -273.1 37.6 -269.6
L 35.15 -260.55
Q 23.55 -262.1 10.55 -262.7
L 9.65 -272.05
Q 9.35 -275.6 6.45 -278.1 3.6 -280.5 0 -280.5 -3.6 -280.5 -6.4 -278.1 -9.35 -275.6 -9.7 -272.05
L -10.6 -262.7
Q -23.65 -262.1 -35.15 -260.55
L -37.65 -269.6
Q -38.6 -273.05 -41.85 -274.95 -45.05 -276.85 -48.65 -276.2 -52.1 -275.6 -54.55 -272.75 -57 -269.75 -56.7 -266.25
L -55.95 -256.9
Q -67.9 -254.3 -79.8 -250.55
L -83.8 -259
Q -85.3 -262.2 -88.9 -263.5 -92.45 -264.75 -95.8 -263.6 -99.15 -262.35 -101 -259.1 -102.85 -255.8 -102 -252.35
L -99.7 -243.35
Q -111.05 -238.7 -122.05 -232.85
L -127.45 -240.45
Q -129.45 -243.35 -133.25 -244.05 -136.85 -244.7 -140 -242.9 -143.15 -241.1 -144.4 -237.6 -145.7 -233.95 -144.2 -230.8
L -140.35 -222.35
Q -150.45 -216 -160.65 -208.15
L -167.2 -214.65
Q -169.7 -217.15 -173.55 -217.15 -177.15 -217.25 -180 -214.85 -182.8 -212.5 -183.35 -208.9 -184.05 -205.15 -182 -202.15
L -176.8 -194.6
Q -186 -186.25 -194.35 -177.1
L -201.85 -182.3
Q -204.75 -184.3 -208.55 -183.7 -212.2 -183 -214.5 -180.25 -216.85 -177.55 -216.85 -173.8 -216.85 -170 -214.3 -167.45
L -207.9 -160.95
Q -215.2 -151.45 -222.2 -140.65
L -230.4 -144.4
Q -233.65 -145.9 -237.25 -144.6 -240.75 -143.35 -242.5 -140.25 -244.3 -137.15 -243.7 -133.45 -243 -129.7 -240.1 -127.65
L -232.75 -122.4
Q -238.3 -111.95 -243.3 -99.9
L -251.95 -102.15
Q -255.35 -103 -258.75 -101.15 -261.95 -99.25 -263.15 -95.9 -264.35 -92.55 -263.1 -89 -261.8 -85.45 -258.6 -83.9
L -250.5 -80.05
Q -254.25 -68.25 -256.9 -56
L -265.8 -56.75
Q -269.35 -57.05 -272.3 -54.6 -275.15 -52.25 -275.8 -48.7 -276.45 -45.15 -274.55 -41.9 -272.7 -38.65 -269.2 -37.65
L -260.55 -35.3
Q -262.2 -22.75 -262.7 -10.5
L -271.65 -9.65
Q -275.1 -9.35 -277.7 -6.45 -280 -3.55 -280 0.05 -280 3.65 -277.65 6.5 -275.25 9.4 -271.65 9.7
L -262.7 10.6
Q -262.2 22.8 -260.55 35.35
L -269.2 37.75
Q -272.65 38.7 -274.55 41.95 -276.45 45.25 -275.8 48.75 -275.15 52.4 -272.3 54.65 -269.4 57.05 -265.8 56.85
L -256.9 56.15
Q -254.25 68.4 -250.5 80.15
L -258.6 83.95
Q -261.85 85.6 -263.1 89.15 -264.4 92.5 -263.15 96 -261.95 99.35 -258.75 101.2 -255.4 103.05 -251.95 102.25
L -243.3 99.95
Q -238.5 111.6 -232.75 122.5
L -240.1 127.7
Q -242.95 129.7 -243.7 133.5 -244.35 137.1 -242.5 140.3 -240.65 143.5 -237.25 144.65 -233.65 145.95 -230.4 144.5
L -222.2 140.7
Q -215.3 151.6 -207.9 161
L -214.3 167.5
Q -216.85 170.15 -216.85 173.9 -216.85 177.6 -214.55 180.35 -212.1 183.15 -208.55 183.75 -204.85 184.4 -201.85 182.4
L -194.3 177.2
Q -185.9 186.35 -176.8 194.65
L -182 202.25
Q -184.05 205.15 -183.35 209 -182.8 212.55 -180 214.9 -177.3 217.25 -173.55 217.25 -169.75 217.15 -167.2 214.7
L -160.65 208.2
Q -150.45 216.05 -140.35 222.4
L -144.2 230.85
Q -145.7 234.05 -144.4 237.7 -143.1 241.25 -140 242.95 -136.9 244.8 -133.25 244.1 -129.4 243.4 -127.45 240.5
L -122.05 233
Q -111.05 238.75 -99.7 243.45
L -102.05 252.45
Q -102.85 255.85 -101 259.2 -99.2 262.4 -95.8 263.65 -92.35 264.9 -88.9 263.6 -85.3 262.3 -83.8 259.05
L -79.8 250.6
Q -68.15 254.35 -55.95 257
L -56.7 266.35
Q -57 269.85 -54.55 272.85 -52.3 275.65 -48.65 276.3 -45.2 276.95 -41.85 275.1 -38.55 273.05 -37.65 269.7
L -35.15 260.6
Q -22.8 262.3 -10.6 262.75
L -9.7 272.15
Q -9.35 275.75 -6.4 278.2 -3.55 280.55 0 280.55 3.6 280.55 6.45 278.15 9.35 275.65 9.65 272.15
L 10.55 262.75
Q 22.65 262.3 35.15 260.6
L 37.6 269.7
Q 38.6 273.1 41.85 275.1 45.1 276.95 48.65 276.3 52.2 275.65 54.5 272.85 57 269.8 56.7 266.35
L 55.9 257
Q 68.1 254.35 79.8 250.6
L 83.8 259.05
Q 85.3 262.2 88.9 263.65 92.3 264.9 95.8 263.65 99.1 262.45 101 259.2 102.85 255.8 102 252.45
L 99.65 243.45
Q 111.25 238.65 122.05 233
L 127.45 240.5
Q 129.45 243.45 133.25 244.1 136.9 244.8 140.05 242.95 143.15 241.2 144.4 237.7 145.7 234.05 144.2 230.85
L 140.35 222.4
Q 150.95 215.7 160.6 208.2
L 167.2 214.7
Q 169.65 217.15 173.55 217.25 177.3 217.25 180 214.9 182.8 212.55 183.4 209 184.05 205.25 182.05 202.25
L 176.75 194.65
Q 185.85 186.45 194.3 177.2
L 201.85 182.4
Q 204.85 184.4 208.55 183.75 212.15 183.15 214.5 180.35 216.85 177.55 216.85 173.9 216.75 170.05 214.3 167.5
L 207.9 161
Q 215.75 150.9 222.15 140.7
L 230.45 144.5
Q 233.6 145.9 237.25 144.7 240.75 143.4 242.5 140.3 244.3 137.25 243.65 133.5 242.9 129.7 240.1 127.7
L 232.7 122.5
Q 238.65 111.15 243.3 99.95
L 251.9 102.25
Q 255.45 103.05 258.7 101.2 261.85 99.45 263.15 96 264.35 92.5 263.1 89.15 261.75 85.55 258.6 83.95
L 250.5 80.15
Q 254.25 68.4 256.9 56.15
L 265.8 56.85
Q 269.4 57.05 272.3 54.65 275.15 52.35 275.75 48.75 276.4 45.2 274.55 41.95 272.55 38.65 269.2 37.75
L 260.55 35.35
Q 262.25 22.8 262.7 10.6
L 271.65 9.7
Q 275.25 9.4 277.65 6.5 280 3.65 280 0.05 280 -3.6 277.65 -6.45 275.15 -9.35 271.65 -9.65
L 262.7 -10.5
Q 262.25 -22.75 260.55 -35.3
L 269.2 -37.65
Q 272.6 -38.65 274.55 -41.9 276.4 -45.05 275.75 -48.7 275.15 -52.25 272.3 -54.6 269.35 -57.05 265.8 -56.75
L 256.9 -56
Q 254.25 -68.25 250.5 -80.05
L 258.6 -83.9
Q 261.8 -85.45 263.1 -89 264.35 -92.55 263.15 -95.9 261.85 -99.4 258.7 -101.15 255.4 -103 251.9 -102.15
L 243.3 -99.9
Q 238.45 -111.5 232.7 -122.4
L 240.1 -127.65
Q 242.95 -129.65 243.65 -133.45 244.3 -137.1 242.5 -140.25 240.8 -143.3 237.25 -144.6 233.6 -145.9 230.45 -144.4
L 222.15 -140.65
Q 215.75 -150.75 207.9 -160.95
L 214.3 -167.45
Q 216.75 -169.9 216.85 -173.8 216.85 -177.45 214.5 -180.25 212.2 -183 208.55 -183.7 204.75 -184.3 201.85 -182.3
L 194.3 -177.1
Q 186 -186.3 176.75 -194.6
L 182.05 -202.15
Q 184.05 -205.25 183.4 -208.9 182.8 -212.5 180 -214.85 177.25 -217.15 173.55 -217.15 Z"/>
</g>

<g id="pie_01_0_Layer0_0_FILL">
<path fill="#4394CF" stroke="none" d="
M 670.6 500.75
L 670.2 219.25
Q 620.65 219.35 574.1 236.3 527.55 253.3 489.6 285.15
L 670.6 500.75 Z"/>
</g>

<g id="pie_01_0_Layer0_1_FILL">
<path fill="#666666" stroke="none" d="
M 670.6 500.75
L 670.2 233.4
Q 623.15 233.5 578.95 249.6 534.75 265.75 498.7 296
L 670.6 500.75 Z"/>
</g>

<g id="pie_02_0_Layer0_0_FILL">
<path fill="#4BA39C" stroke="none" d="
M 489.35 285.35
Q 451.45 317.25 426.7 360.15 401.95 403.1 393.35 451.9
L 670.6 500.75 489.35 285.35 Z"/>
</g>

<g id="pie_02_0_Layer0_1_FILL">
<path fill="#DDDDDD" stroke="none" d="
M 498.5 296.15
Q 462.45 326.45 438.95 367.25 415.5 408 407.3 454.35
L 670.6 500.75 498.5 296.15 Z"/>
</g>

<g id="pie_03_0_Layer0_0_FILL">
<path fill="#A6C23C" stroke="none" d="
M 393.3 452.2
Q 384.75 501 393.4 549.8 402 598.6 426.8 641.5
L 670.6 500.75 393.3 452.2 Z"/>
</g>

<g id="pie_03_0_Layer0_1_FILL">
<path fill="#CDCDCD" stroke="none" d="
M 407.25 454.6
Q 399.15 501 407.35 547.35 415.55 593.7 439.05 634.4
L 670.6 500.75 407.25 454.6 Z"/>
</g>

<g id="pie_04_0_Layer0_0_FILL">
<path fill="#A8CE60" stroke="none" d="
M 489.75 716.5
Q 527.7 748.3 574.25 765.25
L 670.6 500.75 426.95 641.75
Q 451.75 684.65 489.75 716.5 Z"/>
</g>

<g id="pie_04_0_Layer0_1_FILL">
<path fill="#BEBEBE" stroke="none" d="
M 498.85 705.6
Q 534.9 735.85 579.1 751.95
L 670.6 500.75 439.2 634.65
Q 462.8 675.4 498.85 705.6 Z"/>
</g>

<g id="pie_05_0_Layer0_0_FILL">
<path fill="#E5C843" stroke="none" d="
M 670.7 782.25
Q 720.25 782.25 766.8 765.3
L 670.6 500.75 574.55 765.35
Q 621.15 782.25 670.7 782.25 Z"/>
</g>

<g id="pie_05_0_Layer0_1_FILL">
<path fill="#AEAEAE" stroke="none" d="
M 670.65 768.1
Q 717.75 768.1 761.95 752
L 670.6 500.75 579.35 752.05
Q 623.6 768.1 670.65 768.1 Z"/>
</g>

<g id="pie_06_0_Layer0_0_FILL">
<path fill="#DC5D2A" stroke="none" d="
M 243.7 140.85
L 0 0 96.45 264.45
Q 143 247.45 180.95 215.6 218.9 183.75 243.7 140.85 Z"/>
</g>

<g id="pie_06_0_Layer0_1_FILL">
<path fill="#9F9F9F" stroke="none" d="
M 486.85 519.75
Q 522.9 489.5 546.45 448.75
L 315 315 406.6 566.15
Q 450.8 550.05 486.85 519.75 Z"/>
</g>

<g id="pie_07_0_Layer0_0_FILL">
<path fill="#D9317B" stroke="none" d="
M 947.85 549.5
Q 956.45 500.6 947.8 451.75
L 670.6 500.75 914.45 641.35
Q 939.25 598.4 947.85 549.5 Z"/>
</g>

<g id="pie_07_0_Layer0_1_FILL">
<path fill="#919191" stroke="none" d="
M 933.9 547.05
Q 942.05 500.6 933.85 454.2
L 670.6 500.75 902.2 634.3
Q 925.75 593.45 933.9 547.05 Z"/>
</g>

<g id="pie_08_0_Layer0_0_FILL">
<path fill="#733B9C" stroke="none" d="
M 277.15 166.4
Q 268.5 117.6 243.65 74.75 218.85 31.85 180.85 0
L 0 215.7 277.15 166.4 Z"/>
</g>

<g id="pie_08_0_Layer0_1_FILL">
<path fill="#828282" stroke="none" d="
M 902 366.85
Q 878.4 326.1 842.35 295.9
L 670.6 500.75 933.8 453.95
Q 925.55 407.6 902 366.85 Z"/>
</g>

<g id="pie_09_0_Layer0_0_FILL">
<path fill="#326A94" stroke="none" d="
M 96.15 -264.6
Q 49.55 -281.5 0 -281.5
L 0.05 0 180.7 -215.9
Q 142.7 -247.7 96.15 -264.6 Z"/>
</g>

<g id="pie_09_0_Layer0_1_FILL">
<path fill="#747474" stroke="none" d="
M 761.85 249.45
Q 717.6 233.4 670.55 233.4
L 670.6 500.75 842.15 295.75
Q 806.1 265.55 761.85 249.45 Z"/>
</g>

<g id="greyCircle_mc_0_Layer0_0_FILL">
<path fill="#666666" stroke="none" d="
M 53.2 -53.15
Q 31.15 -75.25 0 -75.25 -31.2 -75.25 -53.2 -53.15 -75.25 -31.1 -75.25 0.05 -75.25 7.2 -74.05 13.85 -70.25 36.3 -53.2 53.3 -43.4 63.1 -31.8 68.6 -17.3 75.3 0 75.3 31.15 75.3 53.2 53.3 75.25 31.2 75.25 0.05 75.25 -31.1 53.2 -53.15 Z"/>
</g>

<g id="_Group__1_0_Layer0_0_MEMBER_0_FILL">
<path fill="#FFFFFF" stroke="none" d="
M 248.7 67.25
Q 247.25 64.75 244.6 63.8 241.85 62.8 239.3 64
L 214.65 75.3
Q 210.35 69.25 204.9 63.65
L 220.3 41.3
Q 221.9 38.95 221.4 36.1 220.95 33.3 218.7 31.45 216.5 29.6 213.7 29.6 210.8 29.65 208.8 31.6
L 189.5 50.65
Q 183.15 46.35 176.35 43.05
L 183.15 16.8
Q 183.85 14.05 182.45 11.55 181.05 9.1 178.3 8.1 175.6 7.1 172.95 8.1 170.25 9.1 169.05 11.65
L 157.4 36.15
Q 150 34.25 142.45 33.5
L 139.9 6.5
Q 139.65 3.7 137.45 1.85 135.25 0 132.4 0 129.5 0 127.35 1.85 125.1 3.7 124.85 6.5
L 122.3 33.5
Q 114.75 34.25 107.35 36.15
L 95.75 11.65
Q 94.55 9.1 91.8 8.1 89.15 7.1 86.45 8.1 83.75 9.1 82.35 11.55 80.9 14.05 81.6 16.8
L 88.45 43.05
Q 81.7 46.3 75.25 50.65
L 56 31.6
Q 54 29.65 51.1 29.6 48.25 29.6 46.05 31.45 43.85 33.3 43.35 36.1 42.9 39 44.5 41.3
L 59.85 63.65
Q 54.15 69.55 50.1 75.3
L 25.45 64
Q 22.9 62.8 20.15 63.8 17.5 64.75 16.05 67.25 14.6 69.75 15.15 72.55 15.65 75.4 17.95 77.05
L 40.05 92.75
Q 36.85 99.7 34.85 107.05
L 7.85 104.9
Q 5.05 104.7 2.8 106.5 0.6 108.3 0.1 111.15 -0.4 114 1.05 116.45 2.5 118.95 5.2 119.7
L 31.35 126.9
Q 31.05 132 31.05 134.55 31.05 137.05 31.35 142.15
L 5.2 149.35
Q 2.5 150.1 1.05 152.6 -0.4 155.05 0.1 157.9 0.6 160.75 2.8 162.55 5 164.4 7.85 164.2
L 34.85 162
Q 36.8 169.25 40.05 176.3
L 17.95 192
Q 15.65 193.65 15.15 196.5 14.6 199.3 16.05 201.8 17.5 204.3 20.15 205.25 22.9 206.25 25.45 205.05
L 50.1 193.75
Q 54.4 199.8 59.85 205.4
L 44.5 227.75
Q 42.9 230.1 43.35 232.95 43.85 235.75 46.05 237.6 48.25 239.45 51.1 239.45 54 239.4 56 237.45
L 75.25 218.4
Q 81.55 222.7 88.45 226.05
L 81.6 252.25
Q 80.9 255 82.35 257.5 83.75 259.95 86.45 260.95 89.15 261.95 91.8 260.95 94.55 259.95 95.75 257.4
L 107.35 232.9
Q 114.75 234.8 122.3 235.55
L 124.85 262.55
Q 125.1 265.35 127.35 267.25 129.5 269.05 132.4 269.05 135.25 269.05 137.45 267.25 139.65 265.35 139.9 262.55
L 142.45 235.55
Q 150 234.8 157.4 232.9
L 169.05 257.4
Q 170.25 259.95 172.95 260.95 175.6 261.95 178.3 260.95 181.05 259.95 182.45 257.5 183.85 255 183.15 252.25
L 176.35 226.05
Q 183.25 222.65 189.5 218.4
L 208.8 237.45
Q 210.8 239.4 213.7 239.45 216.5 239.45 218.7 237.6 220.95 235.75 221.4 232.95 221.9 230.1 220.3 227.75
L 204.9 205.4
Q 210.15 200.05 214.65 193.75
L 239.3 205.05
Q 241.85 206.25 244.6 205.25 247.25 204.3 248.7 201.8 250.15 199.3 249.65 196.5 249.1 193.65 246.8 192
L 224.75 176.3
Q 227.9 169.2 229.95 162
L 256.95 164.15
Q 259.75 164.35 261.95 162.55 264.15 160.75 264.65 157.9 265.15 155.05 263.7 152.6 262.25 150.1 259.55 149.35
L 233.4 142.15
Q 233.7 138.35 233.7 134.55 233.7 130.75 233.4 126.9
L 259.55 119.7
Q 262.25 118.95 263.7 116.45 265.15 114 264.65 111.15 264.15 108.3 261.95 106.5 259.75 104.7 256.95 104.9
L 229.95 107.05
Q 227.85 99.7 224.75 92.75
L 246.8 77.05
Q 249.1 75.4 249.65 72.55 250.15 69.75 248.7 67.25
M 195.45 135.8
Q 195.45 162.1 176.8 180.75 158.2 199.35 131.9 199.35 117.3 199.35 105.05 193.7 95.25 189.05 86.95 180.75 72.55 166.4 69.35 147.45 68.35 141.85 68.35 135.8 68.35 109.5 86.95 90.85 105.55 72.2 131.9 72.2 158.2 72.2 176.8 90.85 195.45 109.5 195.45 135.8 Z"/>
</g>

<g id="cog_small_0_Layer2_0_FILL">
<path fill="#AEAEAE" stroke="none" d="
M 3.9 -52.4
Q 3.1 -51.85 2.95 -51
L 1.55 -44 -1.55 -44 -2.95 -51
Q -3.1 -51.75 -3.9 -52.4 -4.7 -52.85 -5.55 -52.8 -6.4 -52.75 -7.1 -52.05 -7.75 -51.3 -7.7 -50.5
L -7.65 -43.35 -10.65 -42.75 -13.5 -49.25
Q -13.8 -50.05 -14.7 -50.45 -15.6 -50.75 -16.4 -50.5 -17.3 -50.2 -17.75 -49.45 -18.2 -48.7 -18.05 -47.8
L -16.5 -40.85 -19.3 -39.6 -23.4 -45.4
Q -23.95 -46.1 -24.85 -46.25 -25.8 -46.4 -26.55 -46 -27.25 -45.55 -27.6 -44.65 -27.95 -43.85 -27.55 -43
L -24.6 -36.5
Q -25.35 -36.05 -27.1 -34.7
L -32.3 -39.5
Q -32.95 -40.1 -33.9 -40.1 -34.85 -40 -35.5 -39.45 -36.15 -38.9 -36.3 -37.95 -36.4 -37 -35.9 -36.3
L -31.65 -30.55
Q -32.85 -29.35 -33.7 -28.3
L -39.8 -31.9
Q -40.6 -32.4 -41.5 -32.15 -42.4 -31.9 -42.9 -31.2 -43.4 -30.5 -43.4 -29.55 -43.3 -28.65 -42.65 -28.05
L -37.3 -23.3 -38.85 -20.65 -45.6 -22.95
Q -46.45 -23.2 -47.25 -22.8 -48.05 -22.4 -48.45 -21.6 -48.85 -20.7 -48.55 -19.9 -48.3 -19 -47.55 -18.55
L -41.35 -15.05 -42.3 -12.1 -49.35 -12.95
Q -50.25 -13 -51 -12.45 -51.65 -11.95 -51.9 -11 -52.05 -10.15 -51.65 -9.35 -51.1 -8.45 -50.35 -8.25
L -43.55 -6.1 -43.9 -3.05 -50.95 -2.35
Q -51.9 -2.25 -52.45 -1.55 -53.05 -0.95 -53.05 0.05 -53.05 0.9 -52.45 1.65 -51.8 2.4 -50.95 2.45
L -43.9 3.1 -43.55 6.15 -50.35 8.3
Q -51.1 8.5 -51.65 9.4 -52.05 10.2 -51.9 11.05 -51.8060546875 11.406640625 -51.65 11.7 -51.405859375 12.1876953125 -51 12.5 -50.25 13.1 -49.35 13
L -42.3 12.2 -41.35 15.1 -47.55 18.6
Q -48.3 19.05 -48.55 19.95 -48.85 20.75 -48.45 21.65 -48.05 22.5 -47.25 22.85 -46.4 23.3 -45.6 23
L -38.85 20.7 -37.3 23.4 -42.65 28.1
Q -43.3 28.7 -43.4 29.6 -43.4 30.55 -42.9 31.25 -42.4 31.95 -41.5 32.2 -40.6 32.45 -39.8 32
L -33.7 28.35 -31.65 30.65 -35.9 36.35
Q -36.4 37.05 -36.3 38 -36.15 38.95 -35.5 39.5 -34.85 40.05 -33.9 40.15 -32.9 40.15 -32.3 39.55
L -27.1 34.75
Q -27.0013671875 34.8306640625 -26.9 34.9 -25.8744140625 35.7306640625 -24.6 36.55
L -27.55 43.05
Q -27.9 43.85 -27.6 44.75 -27.34375 45.4087890625 -26.9 45.8 -26.7375 45.9427734375 -26.55 46.05 -25.7 46.5 -24.85 46.35 -23.85 46.1 -23.4 45.45
L -19.3 39.65 -16.5 40.9 -18.05 47.85
Q -18.2 48.75 -17.75 49.5 -17.3 50.2 -16.4 50.55 -15.6 50.8 -14.7 50.5 -13.75 50.05 -13.5 49.3
L -10.65 42.8 -7.65 43.4 -7.7 50.55
Q -7.75 51.35 -7.1 52.1 -6.5 52.75 -5.55 52.85 -4.8 53 -3.9 52.45 -3.1 51.9 -2.95 51.05
L -1.55 44.05 1.55 44.05 2.95 51.05
Q 3.1 51.95 3.9 52.45 4.7 53 5.55 52.85 6.45 52.8 7.05 52.1 7.7 51.45 7.7 50.55
L 7.65 43.4 10.65 42.8 13.45 49.3
Q 13.8 50.1 14.7 50.5 15.55 50.85 16.4 50.55 17.25 50.25 17.7 49.5 18.2 48.65 18 47.85
L 16.45 40.9 19.3 39.65 23.4 45.45
Q 23.85 46.1 24.85 46.35 25.75 46.5 26.5 46.05 27.25 45.65 27.6 44.75 27.9 43.85 27.55 43.05
L 24.6 36.55
Q 25.75 35.8 27.05 34.75
L 32.3 39.55
Q 32.9 40.15 33.9 40.15 34.85 40.05 35.5 39.5 36.15 38.9 36.25 38 36.4 37.05 35.85 36.35
L 31.65 30.65 33.7 28.35 39.8 32
Q 40.6 32.45 41.5 32.2 42.4 31.95 42.9 31.25 43.45 30.5 43.35 29.6 43.25 28.65 42.65 28.1
L 37.3 23.4 38.85 20.7 45.55 23
Q 46.4 23.3 47.25 22.85 48.1 22.45 48.45 21.65 48.8 20.9 48.55 19.95 48.3 19.05 47.5 18.6
L 41.35 15.1 42.3 12.2 49.35 13
Q 50.2 13.05 50.95 12.5 51.7 11.9 51.85 11.05 52.1 10.2 51.6 9.4 51.15 8.5 50.35 8.3
L 43.55 6.15
Q 43.8 4.65 43.85 3.1
L 50.95 2.45
Q 51.7 2.4 52.45 1.65 53.05 0.9 53.05 0.05 53.05 -0.85 52.45 -1.55 51.8 -2.3 50.95 -2.35
L 43.85 -3.05
Q 43.75 -4.6 43.55 -6.1
L 50.35 -8.25
Q 51.15 -8.45 51.6 -9.35 52.05 -10.15 51.85 -11 51.7 -11.85 50.95 -12.45 50.2 -13 49.35 -12.95
L 42.3 -12.1 41.35 -15.05 47.5 -18.55
Q 48.3 -19 48.55 -19.9 48.8 -20.8 48.45 -21.6 48.1 -22.35 47.25 -22.8 46.5 -23.2 45.55 -22.95
L 38.85 -20.65 37.3 -23.3 42.65 -28.05
Q 43.25 -28.6 43.35 -29.55 43.45 -30.45 42.9 -31.2 42.4 -31.9 41.5 -32.15 40.6 -32.4 39.8 -31.9
L 33.7 -28.3
Q 32.85 -29.35 31.65 -30.55
L 35.85 -36.3
Q 36.4 -37 36.25 -37.95 36.15 -38.85 35.5 -39.45 34.85 -40 33.9 -40.1 33 -40.1 32.3 -39.5
L 27.05 -34.7
Q 24.95 -36.25 24.6 -36.5
L 27.55 -43
Q 27.95 -43.85 27.6 -44.65 27.25 -45.6 26.5 -46 25.8 -46.4 24.85 -46.25 23.95 -46.1 23.4 -45.4
L 19.3 -39.6 16.45 -40.85 18 -47.8
Q 18.2 -48.6 17.7 -49.45 17.25 -50.2 16.4 -50.5 15.55 -50.8 14.7 -50.45 13.8 -50.05 13.45 -49.25
L 10.65 -42.75 7.65 -43.35 7.7 -50.5
Q 7.7 -51.4 7.05 -52.05 6.35 -52.75 5.55 -52.8 4.6 -52.9 3.9 -52.4
M 5.35 -34.65
Q 7.55 -32.4 7.55 -29.3 7.55 -26.15 5.35 -23.95 3.1 -21.75 0 -21.75 -3.1 -21.75 -5.35 -23.95 -7.55 -26.15 -7.55 -29.3 -7.55 -32.4 -5.35 -34.65 -3.1 -36.85 0 -36.85 3.1 -36.85 5.35 -34.65
M 0 -10.4
Q 4.3 -10.4 7.35 -7.35 10.4 -4.25 10.4 0.05 10.4 4.35 7.35 7.4 4.3 10.45 0 10.45 -4.3 10.45 -7.35 7.4 -10.4 4.35 -10.4 0.05 -10.4 -4.25 -7.35 -7.35 -4.3 -10.4 0 -10.4
M 29.25 -7.5
Q 32.35 -7.5 34.6 -5.3 36.8 -3.1 36.8 0.05 36.8 3.15 34.6 5.4 32.35 7.6 29.25 7.6 26.15 7.6 23.9 5.4 21.7 3.15 21.7 0.05 21.7 -3.1 23.9 -5.3 26.15 -7.5 29.25 -7.5
M 0 21.8
Q 3.1 21.8 5.35 24 7.55 26.2 7.55 29.35 7.55 32.45 5.35 34.7 3.1 36.9 0 36.9 -3.1 36.9 -5.35 34.7 -7.55 32.45 -7.55 29.35 -7.55 26.2 -5.35 24 -3.1 21.8 0 21.8
M -29.25 -7.5
Q -26.15 -7.5 -23.95 -5.3 -21.75 -3.1 -21.75 0.05 -21.75 3.15 -23.95 5.4 -26.15 7.6 -29.25 7.6 -32.4 7.6 -34.6 5.4 -36.8 3.15 -36.8 0.05 -36.8 -3.1 -34.6 -5.3 -32.4 -7.5 -29.25 -7.5 Z"/>
</g>

<g id="cog_small_0_Layer1_0_FILL">
<path fill="#AEAEAE" stroke="none" d="
M -1.65 -4.55
Q -3.3 -3.95 -4.2 -2.4 -5.15 -0.85 -4.8 0.9 -4.45 2.8 -2.9 3.95 -1.35 5.1 0.55 4.85
L -1.65 -4.55
M 4.8 -0.85
Q 4.45 -2.75 2.85 -3.9 1.3 -5 -0.6 -4.8
L 1.65 4.6
Q 3.3 4 4.2 2.45 5.1 0.9 4.8 -0.85 Z"/>
</g>

<g id="cog_small_0_Layer0_0_FILL">
<path fill="#CDCDCD" stroke="none" d="
M 10.45 -10.4
Q 6.1 -14.7 0 -14.7 -6.1 -14.7 -10.45 -10.4 -14.75 -6.05 -14.75 0.05 -14.75 6.15 -10.45 10.45 -6.1 14.75 0 14.75 6.1 14.75 10.45 10.45 14.75 6.15 14.75 0.05 14.75 -6.05 10.45 -10.4
M 0 -12.15
Q 5.05 -12.15 8.6 -8.6 12.15 -5 12.15 0.05 12.15 5.1 8.6 8.65 5.05 12.2 0 12.2 -5.05 12.2 -8.65 8.65 -12.2 5.1 -12.2 0.05 -12.2 -5 -8.65 -8.6 -5.05 -12.15 0 -12.15 Z"/>
</g>

<path id="cog_large_0_Layer0_0_1_STROKES" stroke="#C6C6C6" stroke-width="2.8" stroke-linejoin="miter" stroke-linecap="butt" stroke-miterlimit="10" fill="none" d="
M 304.2 6.7
Q 306.55 6.5 308.35 4.45 310 2.45 310 0 310 -2.5 308.35 -4.45 306.55 -6.5 304.2 -6.7
L 285 -8.5
Q 284.9 -13.85 284.35 -21.35
L 303.2 -25.15
Q 305.65 -25.65 307.1 -27.8 308.55 -29.85 308.3 -32.4 308 -34.95 306.15 -36.65 304.35 -38.45 301.8 -38.45
L 282.55 -38.25
Q 281.65 -45.2 280.6 -50.95
L 298.95 -56.65
Q 301.3 -57.45 302.5 -59.75 303.75 -61.95 303.2 -64.45 302.7 -66.9 300.65 -68.45 298.65 -70.1 296.1 -69.8
L 277.05 -67.55
Q 275.4 -74.45 273.75 -80.05
L 291.3 -87.65
Q 293.6 -88.6 294.6 -91.05 295.5 -93.35 294.8 -95.8 293.95 -98.25 291.85 -99.5 289.65 -100.9 287.2 -100.4
L 268.5 -96.15
Q 266.3 -102.25 263.85 -108.2
L 280.6 -117.6
Q 282.7 -118.8 283.45 -121.35 284.2 -123.75 283.15 -126.05 282.1 -128.4 279.9 -129.5 277.5 -130.6 275.2 -129.85
L 256.95 -123.75
Q 253.9 -130.05 251.15 -135.2
L 266.7 -146.3
Q 268.85 -147.8 269.25 -150.3 269.75 -152.85 268.45 -155 267.15 -157.15 264.8 -158.05 262.25 -158.9 260.05 -157.9
L 242.6 -149.9
Q 238.75 -155.95 235.55 -160.65
L 250.05 -173.4
Q 251.8 -175 252.05 -177.65 252.2 -180.2 250.8 -182.2 249.3 -184.3 246.8 -184.8 244.3 -185.45 242.15 -184.25
L 225.6 -174.45
Q 221.95 -179.15 217.45 -184.4
L 230.5 -198.6
Q 232.15 -200.4 232.05 -203.05 231.95 -205.55 230.35 -207.45 228.6 -209.3 226.15 -209.6 223.5 -209.95 221.6 -208.55
L 206.1 -197.05
Q 200.75 -202.6 197.05 -206.1
L 208.45 -221.6
Q 209.95 -223.5 209.6 -226.15 209.2 -228.75 207.4 -230.35 205.55 -232.05 202.95 -232.15 200.4 -232.25 198.55 -230.55
L 184.4 -217.5
Q 178.9 -222.1 174.35 -225.6
L 184.2 -242.2
Q 185.45 -244.25 184.85 -246.85 184.2 -249.3 182.2 -250.8 180.15 -252.25 177.65 -252.1 174.9 -251.85 173.35 -250
L 160.65 -235.6
Q 155.8 -238.95 149.85 -242.6
L 157.9 -260.1
Q 158.9 -262.4 158.05 -264.8 157.15 -267.25 154.95 -268.45 152.75 -269.7 150.3 -269.25 147.7 -268.75 146.25 -266.8
L 135.15 -251.15
Q 130 -253.9 123.7 -257
L 129.8 -275.15
Q 130.6 -277.55 129.45 -279.9 128.3 -282.25 126.05 -283.15 123.75 -284.2 121.3 -283.5 118.85 -282.8 117.6 -280.6
L 108.2 -263.85
Q 103.05 -266 96.15 -268.5
L 100.35 -287.25
Q 100.9 -289.7 99.55 -291.9 98.1 -294.05 95.75 -294.8 93.4 -295.6 91 -294.65 88.6 -293.55 87.6 -291.4
L 80.05 -273.75
Q 74.65 -275.3 67.55 -277.1
L 69.75 -296.15
Q 70.05 -298.55 68.4 -300.7 66.85 -302.75 64.45 -303.2 61.85 -303.75 59.75 -302.55 57.4 -301.3 56.65 -298.95
L 50.9 -280.6
Q 43.85 -281.9 38.2 -282.6
L 38.4 -301.85
Q 38.45 -304.25 36.6 -306.2 34.9 -308 32.35 -308.3 29.85 -308.5 27.8 -307.15 25.65 -305.7 25.15 -303.2
L 21.35 -284.35
Q 13.8 -284.85 8.45 -285
L 6.7 -304.2
Q 6.5 -306.65 4.4 -308.35 2.4 -310 0 -310 -2.55 -310 -4.45 -308.35 -6.5 -306.6 -6.7 -304.2
L -8.5 -285
Q -13.9 -284.85 -21.4 -284.35
L -25.15 -303.2
Q -25.65 -305.65 -27.8 -307.15 -29.95 -308.5 -32.4 -308.3 -34.85 -308 -36.65 -306.2 -38.45 -304.25 -38.45 -301.85
L -38.25 -282.6
Q -43.6 -281.9 -51 -280.6 -56.55 -298.3 -56.75 -298.9 -57.45 -301.3 -59.75 -302.55 -62.05 -303.7 -64.45 -303.2 -66.8 -302.75 -68.45 -300.7 -70.1 -298.55 -69.8 -296.15
L -67.55 -277.1
Q -74.65 -275.3 -80.05 -273.75
L -87.65 -291.4
Q -88.55 -293.55 -91.05 -294.65 -93.4 -295.6 -95.8 -294.8 -98.1 -294.1 -99.55 -291.9 -100.95 -289.6 -100.4 -287.25
L -96.15 -268.5
Q -102.4 -266.25 -108.2 -263.85
L -117.6 -280.6
Q -118.85 -282.8 -121.35 -283.5 -123.75 -284.2 -126.05 -283.15 -128.45 -282.2 -129.55 -279.9 -130.6 -277.45 -129.9 -275.15
L -123.7 -257
Q -130.05 -253.9 -135.15 -251.15
L -146.3 -266.8
Q -147.75 -268.75 -150.3 -269.25 -152.85 -269.7 -154.95 -268.45 -157.15 -267.3 -158.05 -264.8 -158.95 -262.35 -157.95 -260.1
L -149.85 -242.6
Q -155.15 -239.35 -160.65 -235.6
L -173.4 -250
Q -175 -251.85 -177.65 -252.1 -180.15 -252.25 -182.2 -250.8 -184.3 -249.3 -184.85 -246.85 -185.5 -244.25 -184.2 -242.2
L -174.4 -225.6
Q -179.1 -221.95 -184.4 -217.5
L -198.6 -230.55
Q -200.4 -232.25 -203.05 -232.15 -205.5 -232.05 -207.45 -230.35 -209.3 -228.65 -209.6 -226.15 -209.95 -223.55 -208.5 -221.6
L -197.05 -206.1
Q -201.05 -202.35 -206.1 -197.05
L -221.6 -208.55
Q -223.5 -209.95 -226.2 -209.6 -228.7 -209.25 -230.35 -207.45 -232.05 -205.5 -232.15 -203.05 -232.25 -200.4 -230.55 -198.6
L -217.55 -184.4
Q -221.4 -179.8 -225.6 -174.45
L -242.2 -184.25
Q -244.35 -185.45 -246.9 -184.8 -249.3 -184.3 -250.8 -182.2 -252.35 -180.1 -252.1 -177.65 -251.95 -175 -250.05 -173.4
L -235.6 -160.65
Q -240.4 -153.55 -242.65 -149.9
L -260.1 -157.9
Q -262.3 -158.9 -264.8 -158.05 -267.2 -157.15 -268.5 -155 -269.7 -152.95 -269.3 -150.3 -268.8 -147.8 -266.8 -146.3
L -251.15 -135.2
Q -253.9 -130.05 -257 -123.75
L -275.2 -129.85
Q -277.5 -130.6 -279.9 -129.5 -282.2 -128.35 -283.2 -126.05 -284.2 -123.85 -283.5 -121.35 -282.75 -118.85 -280.65 -117.6
L -263.85 -108.2
Q -266.3 -102.25 -268.5 -96.15
L -287.2 -100.4
Q -289.65 -100.9 -291.85 -99.5 -294.05 -98.2 -294.8 -95.8 -295.65 -93.35 -294.6 -91.05 -293.6 -88.6 -291.4 -87.65
L -273.75 -80.05
Q -275.5 -74.25 -277.05 -67.55
L -296.15 -69.8
Q -298.65 -70.1 -300.7 -68.45 -302.65 -66.9 -303.25 -64.45 -303.75 -62.05 -302.55 -59.75 -301.35 -57.45 -298.95 -56.65
L -280.6 -50.95
Q -281.6 -45.8 -282.6 -38.25
L -301.8 -38.45
Q -304.3 -38.45 -306.25 -36.65 -308 -34.9 -308.3 -32.4 -308.6 -29.95 -307.1 -27.8 -305.7 -25.65 -303.25 -25.15
L -284.35 -21.35
Q -284.85 -15.35 -285 -8.5
L -304.2 -6.7
Q -306.55 -6.5 -308.35 -4.45 -310 -2.5 -310 0 -310 2.5 -308.35 4.45 -306.55 6.5 -304.2 6.7
L -285 8.5
Q -284.85 15.35 -284.35 21.35
L -303.25 25.15
Q -305.7 25.65 -307.1 27.8 -308.6 29.85 -308.3 32.4 -308.1 34.8 -306.25 36.7 -304.3 38.45 -301.8 38.45
L -282.6 38.25
Q -281.6 45.8 -280.6 50.95
L -298.95 56.7
Q -301.35 57.45 -302.55 59.75 -303.75 62.05 -303.25 64.45 -302.75 66.95 -300.7 68.45 -298.65 70.1 -296.15 69.8
L -277.05 67.55
Q -275.8 72.95 -273.75 80.05
L -291.4 87.65
Q -293.6 88.6 -294.6 91.05 -295.65 93.35 -294.8 95.8 -294.05 98.15 -291.85 99.55 -289.6 100.9 -287.2 100.4
L -268.5 96.15
Q -266.3 102.25 -263.85 108.2
L -280.65 117.6
Q -282.75 118.85 -283.5 121.35 -284.2 123.85 -283.2 126.05 -282.2 128.4 -279.9 129.5 -277.5 130.6 -275.2 129.85
L -257 123.75
Q -253.9 130.05 -251.15 135.2
L -266.8 146.3
Q -268.8 147.7 -269.3 150.3 -269.7 152.9 -268.5 155.05 -267.2 157.15 -264.8 158.05 -262.3 158.9 -260.1 157.9
L -242.65 149.9
Q -239.75 154.55 -235.6 160.65
L -250.05 173.4
Q -251.95 175.1 -252.1 177.65 -252.35 180.15 -250.8 182.2 -249.3 184.3 -246.9 184.8 -244.35 185.45 -242.2 184.25
L -225.6 174.45
Q -221.4 179.8 -217.55 184.4
L -230.55 198.6
Q -232.25 200.4 -232.15 203.05 -232.05 205.5 -230.35 207.45 -228.7 209.3 -226.2 209.6 -223.6 210 -221.6 208.55
L -206.1 197.05
Q -201.05 202.35 -197.05 206.1
L -208.5 221.6
Q -209.95 223.55 -209.6 226.2 -209.3 228.65 -207.45 230.35 -205.5 232.05 -203.05 232.15 -200.4 232.25 -198.6 230.55
L -184.4 217.5
Q -179.1 221.95 -174.4 225.6
L -184.2 242.2
Q -185.5 244.25 -184.85 246.85 -184.3 249.3 -182.2 250.8 -180.15 252.25 -177.65 252.1 -175 251.85 -173.4 250.05
L -160.65 235.6
Q -155.15 239.35 -149.85 242.6
L -157.95 260.1
Q -158.95 262.35 -158.05 264.8 -157.25 267.25 -154.95 268.45 -152.85 269.75 -150.3 269.25 -147.7 268.75 -146.3 266.8
L -135.15 251.15
Q -130.05 253.9 -123.7 257
L -129.9 275.15
Q -130.6 277.45 -129.55 279.9 -128.45 282.25 -126.05 283.15 -123.75 284.2 -121.35 283.5 -118.85 282.8 -117.6 280.6
L -108.2 263.85
Q -102.4 266.25 -96.15 268.5
L -100.4 287.25
Q -100.9 289.65 -99.55 291.9 -98.15 294.05 -95.8 294.85 -93.35 295.6 -91.05 294.65 -88.55 293.55 -87.65 291.4
L -80.05 273.75
Q -74.15 275.45 -67.55 277.1
L -69.8 296.15
Q -70.1 298.55 -68.45 300.7 -66.8 302.75 -64.45 303.2 -61.95 303.75 -59.75 302.55 -57.45 301.3 -56.75 298.95
L -51 280.6
Q -45.05 281.75 -38.25 282.6
L -38.45 301.85
Q -38.45 304.35 -36.65 306.2 -34.95 308 -32.4 308.3 -29.85 308.55 -27.8 307.15 -25.65 305.65 -25.15 303.2
L -21.4 284.35
Q -13.85 284.9 -8.5 285
L -6.7 304.2
Q -6.5 306.6 -4.45 308.35 -2.55 310 0 310 2.4 310 4.4 308.35 6.5 306.65 6.7 304.2
L 8.45 285
Q 13.8 284.9 21.35 284.35
L 25.15 303.2
Q 25.65 305.7 27.8 307.15 29.85 308.55 32.35 308.3 34.9 308 36.6 306.2 38.45 304.25 38.4 301.85
L 38.2 282.6
Q 45.2 281.7 50.9 280.6
L 56.65 298.95
Q 57.4 301.3 59.75 302.55 61.85 303.75 64.45 303.2 66.8 302.75 68.45 300.7 70.05 298.6 69.75 296.15
L 67.55 277.1
Q 74.65 275.3 80.05 273.75
L 87.6 291.4
Q 88.6 293.55 91 294.65 93.35 295.6 95.75 294.85 98.15 294.05 99.55 291.9 100.85 289.75 100.35 287.25
L 96.15 268.5
Q 102.55 266.2 108.2 263.9
L 117.6 280.65
Q 118.85 282.8 121.3 283.5 123.75 284.2 126.05 283.15 128.35 282.25 129.45 279.9 130.6 277.55 129.8 275.15
L 123.7 257
Q 130 253.9 135.15 251.15
L 146.3 266.8
Q 147.65 268.75 150.3 269.25 152.75 269.75 154.95 268.45 157.15 267.25 158.05 264.8 158.95 262.35 157.9 260.1
L 149.85 242.6
Q 155.8 238.95 160.65 235.6
L 173.35 250.05
Q 174.95 251.85 177.65 252.1 180.15 252.25 182.2 250.8 184.2 249.3 184.85 246.85 185.45 244.3 184.2 242.15
L 174.35 225.6
Q 179.2 221.9 184.35 217.5
L 198.55 230.55
Q 200.4 232.25 203 232.15 205.55 232.05 207.4 230.35 209.3 228.7 209.6 226.15 209.95 223.5 208.45 221.6
L 197.05 206.1
Q 200.75 202.6 206.1 197.05
L 221.6 208.55
Q 223.6 210 226.2 209.6 228.6 209.3 230.35 207.45 232.05 205.45 232.05 203.05 232.15 200.4 230.5 198.6
L 217.45 184.4
Q 221.95 179.15 225.6 174.45
L 242.15 184.25
Q 244.3 185.45 246.8 184.8 249.3 184.3 250.8 182.2 252.2 180.25 252.05 177.65 251.8 175 250 173.4
L 235.55 160.65
Q 238.75 155.95 242.6 149.9
L 260.1 157.9
Q 262.35 158.95 264.8 158.05 267.1 157.2 268.45 155.05 269.7 152.8 269.25 150.3 268.85 147.8 266.7 146.3
L 251.15 135.2
Q 253.9 130.05 256.95 123.75
L 275.2 129.85
Q 277.5 130.6 279.9 129.5 282.2 128.35 283.15 126.05 284.2 123.75 283.5 121.35 282.65 118.8 280.6 117.6
L 263.85 108.2
Q 266.3 102.25 268.5 96.15
L 287.2 100.4
Q 289.6 100.9 291.85 99.5 293.95 98.25 294.8 95.8 295.5 93.35 294.6 91.05 293.6 88.6 291.3 87.65
L 273.75 80.05
Q 275.3 74.65 277.05 67.6
L 296.1 69.8
Q 298.65 70.1 300.65 68.45 302.65 67 303.2 64.45 303.75 61.95 302.5 59.75 301.3 57.45 298.95 56.65
L 280.6 51
Q 281.65 45.15 282.55 38.25
L 301.8 38.45
Q 304.35 38.45 306.15 36.65 308 34.95 308.3 32.4 308.55 29.85 307.1 27.8 305.65 25.65 303.2 25.15
L 284.35 21.35
Q 284.9 13.85 285 8.5
L 304.2 6.7 Z"/>

<path id="cog_medium_0_Layer0_0_1_STROKES" stroke="#767778" stroke-width="2.8" stroke-linejoin="miter" stroke-linecap="butt" stroke-miterlimit="10" fill="none" d="
M 36.9 -69.35
Q 35.3 -70.2 34.8 -71.85 34.25 -73.55 35.05 -75.1 35.85 -76.65 37.55 -77.2 39.2 -77.75 40.8 -76.95 42.35 -76.1 42.9 -74.45 43.4 -72.75 42.6 -71.2 42.05 -70.15 41 -69.5 40 -68.9 38.8 -68.9 37.8 -68.9 36.9 -69.35 Z
M 54.25 -57.15
Q 52.95 -58.35 52.9 -60.1 52.85 -61.85 54.05 -63.15 55.25 -64.45 57 -64.5 58.8 -64.55 60.05 -63.35 61.35 -62.15 61.4 -60.4 61.45 -58.6 60.25 -57.35 59.05 -56 57.15 -56 55.45 -56 54.25 -57.15 Z
M 16.85 -76.45
Q 15.1 -76.8 14.15 -78.25 13.2 -79.75 13.55 -81.45 13.9 -83.15 15.35 -84.15 16.8 -85.15 18.55 -84.8 20.3 -84.4 21.25 -82.95 22.25 -81.45 21.85 -79.75 21.55 -78.25 20.4 -77.3 19.2 -76.35 17.7 -76.35
L 16.85 -76.45 Z
M 67.7 -40.7
Q 66.8 -42.2 67.2 -43.9 67.6 -45.6 69.1 -46.5 70.65 -47.45 72.35 -47 74.05 -46.6 74.95 -45.1 75.9 -43.6 75.45 -41.9 75.05 -40.2 73.55 -39.25 72.5 -38.65 71.35 -38.65 68.9 -38.65 67.7 -40.7 Z
M 79.15 0
L 79.15 -0.15
Q 79.15 -1.9 80.4 -3.15 81.65 -4.4 83.4 -4.45 85.15 -4.45 86.4 -3.2 87.65 -1.95 87.65 -0.2
L 87.65 0
Q 87.65 1.75 86.4 3 85.15 4.25 83.4 4.25 81.65 4.25 80.4 3 79.15 1.75 79.15 0 Z
M 76.25 -21.2
Q 75.75 -22.9 76.6 -24.45 77.45 -25.95 79.15 -26.45 80.9 -26.95 82.4 -26.1 83.95 -25.2 84.4 -23.5 84.9 -21.8 84.05 -20.3 83.2 -18.75 81.5 -18.3 80.95 -18.1 80.3 -18.1 78.9 -18.1 77.75 -18.95 76.6 -19.8 76.25 -21.2 Z
M 79.25 26.3
Q 77.55 25.85 76.65 24.3 75.8 22.8 76.3 21.1 76.75 19.4 78.3 18.5 79.8 17.65 81.5 18.15 83.2 18.6 84.1 20.15 84.95 21.65 84.45 23.35 84.1 24.75 82.95 25.65 81.8 26.5 80.4 26.5 79.95 26.5 79.25 26.3 Z
M 69.25 46.4
Q 67.75 45.5 67.35 43.8 66.9 42.05 67.8 40.55 68.75 39.05 70.45 38.65 72.15 38.2 73.65 39.15 75.15 40.05 75.6 41.8 76 43.5 75.1 45
L 75.05 45
Q 73.8 47.05 71.45 47.05 70.2 47.05 69.25 46.4 Z
M 35.25 75.05
Q 34.4 73.5 34.95 71.85 35.5 70.15 37.05 69.35 38.65 68.55 40.3 69.05 41.95 69.6 42.75 71.15 43.6 72.7 43.05 74.4 42.5 76.05 40.95 76.85 40.1 77.35 39 77.35 37.85 77.35 36.85 76.75 35.8 76.15 35.25 75.05 Z
M 13.75 81.5
Q 13.4 79.8 14.35 78.3 15.3 76.85 17.05 76.45 18.75 76.1 20.25 77.05 21.7 78 22.05 79.75 22.45 81.45 21.45 82.95 20.5 84.45 18.75 84.8 18.45 84.85 17.9 84.85 16.4 84.85 15.25 83.95 14.05 83 13.75 81.5 Z
M 54.2 63.05
Q 53 61.8 53.05 60 53.1 58.25 54.4 57.05 55.65 55.85 57.45 55.9 59.2 55.95 60.4 57.25 61.6 58.5 61.55 60.3 61.5 62.05 60.2 63.25 59.05 64.4 57.3 64.4 55.5 64.4 54.2 63.05 Z
M -80.6 -6.9
Q -82.35 -7.1 -83.45 -8.5 -84.5 -9.9 -84.3 -11.65 -84.05 -13.35 -82.65 -14.45 -81.25 -15.5 -79.55 -15.3 -77.8 -15.05 -76.7 -13.7 -75.6 -12.3 -75.85 -10.55 -76.05 -8.95 -77.25 -7.9 -78.45 -6.85 -80.05 -6.85
L -80.6 -6.9 Z
M -8.9 -81.5
Q -9.05 -83.25 -7.95 -84.65 -6.8 -86 -5.05 -86.15 -3.3 -86.3 -1.95 -85.2 -0.6 -84.05 -0.4 -82.3 -0.25 -80.55 -1.4 -79.2 -2.5 -77.85 -4.25 -77.65
L -4.65 -77.65
Q -6.3 -77.65 -7.5 -78.75 -8.75 -79.85 -8.9 -81.5 Z
M -30.65 -76
Q -31.2 -77.65 -30.4 -79.25 -29.65 -80.85 -27.95 -81.4 -26.3 -81.95 -24.75 -81.15 -23.15 -80.4 -22.6 -78.7 -22.05 -77.05 -22.8 -75.5 -23.55 -73.9 -25.25 -73.35 -26 -73.1 -26.6 -73.1 -27.95 -73.1 -29.05 -73.85 -30.2 -74.65 -30.65 -76 Z
M -65.7 -48.8
Q -67.05 -49.9 -67.25 -51.6 -67.45 -53.35 -66.35 -54.75 -65.25 -56.15 -63.5 -56.35 -61.75 -56.55 -60.4 -55.45 -59 -54.3 -58.8 -52.6 -58.6 -50.85 -59.7 -49.45 -61 -47.85 -63.05 -47.85 -64.55 -47.85 -65.7 -48.8 Z
M -50.15 -64.95
Q -51.15 -66.4 -50.85 -68.15 -50.5 -69.9 -49.05 -70.9 -47.6 -71.85 -45.9 -71.55 -44.15 -71.2 -43.15 -69.8 -42.15 -68.35 -42.5 -66.6 -42.8 -64.85 -44.25 -63.9 -45.25 -63.15 -46.65 -63.15 -48.95 -63.15 -50.15 -64.95 Z
M -76 -28.85
Q -77.6 -29.5 -78.3 -31.15 -78.95 -32.8 -78.3 -34.4 -77.6 -36 -76 -36.7 -74.35 -37.35 -72.75 -36.7 -71.15 -36 -70.45 -34.4 -69.8 -32.8 -70.45 -31.15 -70.95 -29.95 -72 -29.25 -73.1 -28.55 -74.35 -28.55 -75.15 -28.55 -76 -28.85 Z
M -84.25 11.85
Q -84.45 10.15 -83.4 8.75 -82.3 7.35 -80.6 7.1 -78.85 6.9 -77.45 7.95 -76 9.05 -75.8 10.8 -75.55 12.55 -76.65 13.95 -77.75 15.35 -79.5 15.55
L -80.05 15.6
Q -81.6 15.6 -82.8 14.55 -84 13.45 -84.25 11.85 Z
M -78.2 34.6
Q -78.9 33 -78.2 31.35 -77.55 29.7 -75.9 29.05 -74.3 28.4 -72.65 29.05 -71 29.75 -70.35 31.35 -69.7 33 -70.35 34.6 -71.05 36.2 -72.65 36.9 -73.4 37.25 -74.3 37.25 -75.55 37.25 -76.6 36.55 -77.7 35.8 -78.2 34.6 Z
M -66.2 54.95
Q -67.3 53.55 -67.15 51.85 -66.95 50.1 -65.55 49 -64.2 47.9 -62.45 48.05 -60.7 48.25 -59.6 49.65 -58.45 51 -58.65 52.75 -58.85 54.5 -60.25 55.6 -61.4 56.55 -62.9 56.55 -65 56.55 -66.2 54.95 Z
M -48.9 71.05
Q -50.35 70.05 -50.7 68.3 -51 66.6 -50 65.15 -49 63.7 -47.25 63.35 -45.55 63.05 -44.1 64 -42.65 65 -42.3 66.75 -42 68.5 -43 69.95 -44.25 71.8 -46.5 71.8 -47.75 71.8 -48.9 71.05 Z
M -27.75 81.5
Q -29.45 80.95 -30.2 79.35 -31 77.8 -30.45 76.1 -29.9 74.45 -28.3 73.65 -26.75 72.9 -25.05 73.45 -23.4 74 -22.6 75.6 -21.85 77.15 -22.4 78.8 -22.85 80.15 -23.95 80.95 -25.05 81.7 -26.4 81.7 -27.15 81.7 -27.75 81.5 Z
M -4.85 86.2
Q -6.6 86.05 -7.75 84.7 -8.85 83.35 -8.7 81.6 -8.55 79.85 -7.2 78.7 -5.8 77.55 -4.05 77.75 -2.3 77.9 -1.2 79.25 -0.05 80.6 -0.2 82.35 -0.35 84 -1.6 85.1 -2.8 86.2 -4.45 86.2
L -4.85 86.2 Z"/>
</defs>

<g id="cog_large" transform="matrix( 1.1814117431640625, 0, 0, 1.18145751953125, 370,370) ">
<g transform="matrix( 1, 0, 0, 1, 0,0) ">
<use xlink:href="#cog_large_0_Layer0_0_FILL"/>

<use xlink:href="#cog_large_0_Layer0_0_1_STROKES"/>
</g>
</g>

<g id="innerWorkings" transform="matrix( 0.0001220703125, 1.0790252685546875, -1.0790252685546875, 0.0001220703125, 367.35,370) ">
<g transform="matrix( 0.86602783203125, 0.4999847412109375, -0.4999847412109375, 0.86602783203125, -100.65,-374.5) ">
<use xlink:href="#innerWorkings_0_Layer1_0_MEMBER_0_FILL"/>
</g>

<g transform="matrix( 0.906280517578125, 0.4224395751953125, -0.4224395751953125, 0.906280517578125, -204.8,-701.7) ">
<use xlink:href="#innerWorkings_0_Layer1_0_MEMBER_1_MEMBER_0_MEMBER_0_FILL"/>
</g>

<g transform="matrix( 0.90631103515625, 0.42242431640625, -0.42242431640625, 0.90631103515625, 245.6,-100.3) ">
<g transform="matrix( 1, 0, 0, 1, 3.1,3.05) ">
<g transform="matrix( 1, 0, 0, 1, 0,0) ">
<use filter="url(#Filter_1)" xlink:href="#FlashAICB_Layer_1__Path__0_Layer0_0_FILL"/>
</g>
</g>

<g transform="matrix( 1, 0, 0, 1, 7,7) ">
<g transform="matrix( 1, 0, 0, 1, 0,0) ">
<use filter="url(#Filter_1)" xlink:href="#FlashAICB_Layer_1__Group__1_1_0_Layer0_0_MEMBER_0_FILL"/>
</g>

<g transform="matrix( 1, 0, 0, 1, 0,0) ">
<use filter="url(#Filter_1)" xlink:href="#FlashAICB_Layer_1__Group__1_1_0_Layer0_0_MEMBER_1_FILL"/>
</g>
</g>

<g transform="matrix( 1, 0, 0, 1, 0,0) ">
<g transform="matrix( 1, 0, 0, 1, 0,0) ">
<use filter="url(#Filter_1)" xlink:href="#FlashAICB_Layer_1__Group__2_0_Layer0_0_MEMBER_0_FILL"/>
</g>
</g>
</g>

<g transform="matrix( 0.90631103515625, 0.42242431640625, -0.42242431640625, 0.90631103515625, 242.4,71.1) ">
<g transform="matrix( 1, 0, 0, 1, 3.1,3.1) ">
<g transform="matrix( 1, 0, 0, 1, 0,0) ">
<use filter="url(#Filter_1)" xlink:href="#FlashAICB_Layer_1__Path__0_0_Layer0_0_FILL"/>
</g>
</g>

<g transform="matrix( 1, 0, 0, 1, 7,7.05) ">
<g transform="matrix( 1, 0, 0, 1, 0,0) ">
<use filter="url(#Filter_1)" xlink:href="#FlashAICB_Layer_1__Group__1_2_0_Layer0_0_MEMBER_0_FILL"/>
</g>

<g transform="matrix( 1, 0, 0, 1, 0,0) ">
<use filter="url(#Filter_1)" xlink:href="#FlashAICB_Layer_1__Group__1_2_0_Layer0_0_MEMBER_1_FILL"/>
</g>
</g>

<g transform="matrix( 1, 0, 0, 1, 0,0) ">
<g transform="matrix( 1, 0, 0, 1, 0,0) ">
<use filter="url(#Filter_1)" xlink:href="#FlashAICB_Layer_1__Group__4_0_Layer0_0_MEMBER_0_FILL"/>
</g>
</g>
</g>

<g transform="matrix( 1, 0, 0, 1, 0,0) ">
<use xlink:href="#innerWorkings_0_Layer1_0_MEMBER_2_FILL"/>
</g>

<g transform="matrix( 1, 0, 0, 1, 0,0) ">
<use xlink:href="#innerWorkings_0_Layer1_0_MEMBER_3_FILL"/>
</g>

<g id="titles_mc" transform="matrix( 1, 0, 0, 1, 53.1,-7.75) ">
<g transform="matrix( -0.848602294921875, -0.528961181640625, 0.528961181640625, -0.848602294921875, -163.9,323.05) ">
<clipPath id="Mask_Mask_1">
<rect x="30.1" y="-2" width="83.8" height="33.25" fill="#FFFFFF" stroke="none"/>
</clipPath>

<text clip-path="url(#Mask_Mask_1)" writing-mode="lr"><tspan x="32.15" y="23.25" baseline-shift="0%" font-family="Montserrat-Bold" font-weight="bold" font-size="24" fill="#666666" xml:space="preserve">START</tspan></text>
</g>

<g transform="matrix( 0.84619140625, -0.532623291015625, 0.532623291015625, 0.84619140625, -286.95,-230.2) ">
<clipPath id="Mask_Mask_2">
<rect x="4.1" y="-2" width="135.8" height="33.25" fill="#FFFFFF" stroke="none"/>
</clipPath>

<text clip-path="url(#Mask_Mask_2)" writing-mode="lr"><tspan x="6.2" y="23.25" baseline-shift="0%" font-family="Montserrat-Bold" font-weight="bold" font-size="24" fill="#666666" xml:space="preserve">CONSIDER</tspan></text>
</g>

<g transform="matrix( 0.00531005859375, -0.9998779296875, 0.9998779296875, 0.00531005859375, 242.85,79.95) ">
<clipPath id="Mask_Mask_3">
<rect x="37" y="-2.1" width="70" height="33.35" fill="#FFFFFF" stroke="none"/>
</clipPath>

<text clip-path="url(#Mask_Mask_3)" writing-mode="lr"><tspan x="39.05" y="23.25" baseline-shift="0%" font-family="Montserrat-Bold" font-weight="bold" font-size="24" fill="#666666" xml:space="preserve">STOP</tspan></text>
</g>
</g>
</g>

<g id="innerDisk_mc" transform="matrix( 1.18145751953125, 0, 0, 1.18145751953125, 369.35,370) ">
<g transform="matrix( 0.96112060546875, 0, 0, 0.96112060546875, 0,0) ">
<use xlink:href="#disk_0_Layer0_0_FILL"/>
</g>
</g>

<g id="pie_09" transform="matrix( 1.18145751953125, 0, 0, 1.18145751953125, 155.5,37.35) ">
<g transform="matrix( 1, 0, 0, 1, -489.6,-219.25) ">
<use xlink:href="#pie_01_0_Layer0_0_FILL"/>
</g>

<g transform="matrix( 1, 0, 0, 1, -489.6,-219.25) ">
<use xlink:href="#pie_01_0_Layer0_1_FILL"/>
</g>

<g transform="matrix( 1, 0, 0, 1, 45.4,58.15) ">
<clipPath id="Mask_Mask_4">
<rect x="23.75" y="-2" width="96.5" height="82.35" fill="#FFFFFF" stroke="none"/>
</clipPath>

<text clip-path="url(#Mask_Mask_4)" writing-mode="lr"><tspan x="29.65" y="13.85" baseline-shift="0%" font-family="Montserrat-Bold" font-weight="bold" font-size="14.3" fill="#FFFFFF" xml:space="preserve">Understand </tspan><tspan x="32.7" y="34.15" baseline-shift="0%" font-family="Montserrat-Bold" font-weight="bold" font-size="14.3" fill="#FFFFFF" xml:space="preserve">user needs </tspan><tspan x="31.95" y="54.45" baseline-shift="0%" font-family="Montserrat-Bold" font-weight="bold" font-size="14.3" fill="#FFFFFF" xml:space="preserve">to increase </tspan><tspan x="25.8" y="74.75" baseline-shift="0%" font-family="Montserrat-Bold" font-weight="bold" font-size="14.3" fill="#FFFFFF" xml:space="preserve">engagement</tspan></text>
</g>
</g>

<g id="pie_08" transform="matrix( 1.18145751953125, 0, 0, 1.18145751953125, 41.8,115.45) ">
<g transform="matrix( 1, 0, 0, 1, -393.35,-285.35) ">
<use xlink:href="#pie_02_0_Layer0_0_FILL"/>
</g>

<g transform="matrix( 1, 0, 0, 1, -393.35,-285.35) ">
<use xlink:href="#pie_02_0_Layer0_1_FILL"/>
</g>

<g transform="matrix( 1, 0, 0, 1, 35.8,91.05) ">
<clipPath id="Mask_Mask_5">
<rect x="35.9" y="-2" width="72.2" height="62.05" fill="#FFFFFF" stroke="none"/>
</clipPath>

<text clip-path="url(#Mask_Mask_5)" writing-mode="lr"><tspan x="41.3" y="13.85" baseline-shift="0%" font-family="Montserrat-Bold" font-weight="bold" font-size="14.3" fill="#666666" xml:space="preserve">Increase </tspan><tspan x="46.15" y="34.15" baseline-shift="0%" font-family="Montserrat-Bold" font-weight="bold" font-size="14.3" fill="#666666" xml:space="preserve">service </tspan><tspan x="38" y="54.45" baseline-shift="0%" font-family="Montserrat-Bold" font-weight="bold" font-size="14.3" fill="#666666" xml:space="preserve">reliability</tspan></text>
</g>
</g>

<g id="pie_07" transform="matrix( 1.18145751953125, 0, 0, 1.18145751953125, 36.7,312.6) ">
<g transform="matrix( 1, 0, 0, 1, -389.05,-452.2) ">
<use xlink:href="#pie_03_0_Layer0_0_FILL"/>
</g>

<g transform="matrix( 1, 0, 0, 1, -389.05,-452.2) ">
<use xlink:href="#pie_03_0_Layer0_1_FILL"/>
</g>

<g transform="matrix( 1, 0, 0, 1, 21.6,52.2) ">
<clipPath id="Mask_Mask_6">
<rect x="28.85" y="-2" width="86.3" height="62.05" fill="#FFFFFF" stroke="none"/>
</clipPath>

<text clip-path="url(#Mask_Mask_6)" writing-mode="lr"><tspan x="32.8" y="13.85" baseline-shift="0%" font-family="Montserrat-Bold" font-weight="bold" font-size="14.3" fill="#666666" xml:space="preserve">Accelerate </tspan><tspan x="45.75" y="34.15" baseline-shift="0%" font-family="Montserrat-Bold" font-weight="bold" font-size="14.3" fill="#666666" xml:space="preserve">time to </tspan><tspan x="46.05" y="54.45" baseline-shift="0%" font-family="Montserrat-Bold" font-weight="bold" font-size="14.3" fill="#666666" xml:space="preserve">market</tspan></text>
</g>
</g>

<g id="pie_06" transform="matrix( 1.18145751953125, 0, 0, 1.18145751953125, 81.45,370) ">
<g transform="matrix( 1, 0, 0, 1, -426.95,-500.75) ">
<use xlink:href="#pie_04_0_Layer0_0_FILL"/>
</g>

<g transform="matrix( 1, 0, 0, 1, -426.95,-500.75) ">
<use xlink:href="#pie_04_0_Layer0_1_FILL"/>
</g>

<g transform="matrix( 1, 0, 0, 1, 46.8,110.55) ">
<clipPath id="Mask_Mask_7">
<rect x="28.4" y="-2" width="87.2" height="82.35" fill="#FFFFFF" stroke="none"/>
</clipPath>

<text clip-path="url(#Mask_Mask_7)" writing-mode="lr"><tspan x="34.2" y="13.85" baseline-shift="0%" font-family="Montserrat-Bold" font-weight="bold" font-size="14.3" fill="#666666" xml:space="preserve">Embed UX </tspan><tspan x="32.35" y="34.15" baseline-shift="0%" font-family="Montserrat-Bold" font-weight="bold" font-size="14.3" fill="#666666" xml:space="preserve">design and </tspan><tspan x="40.7" y="54.45" baseline-shift="0%" font-family="Montserrat-Bold" font-weight="bold" font-size="14.3" fill="#666666" xml:space="preserve">research</tspan><tspan x="38.5" y="74.75" baseline-shift="0%" font-family="Montserrat-Bold" font-weight="bold" font-size="14.3" fill="#666666" xml:space="preserve">practices</tspan></text>
</g>
</g>

<g id="pie_05" transform="matrix( 1.18145751953125, 0, 0, 1.18145751953125, 255.9,370) ">
<g transform="matrix( 1, 0, 0, 1, -574.55,-500.75) ">
<use xlink:href="#pie_05_0_Layer0_0_FILL"/>
</g>

<g transform="matrix( 1, 0, 0, 1, -574.55,-500.75) ">
<use xlink:href="#pie_05_0_Layer0_1_FILL"/>
</g>

<g transform="matrix( 1, 0, 0, 1, 24.25,167.15) ">
<clipPath id="Mask_Mask_8">
<rect x="8.4" y="-2" width="127.2" height="82.35" fill="#FFFFFF" stroke="none"/>
</clipPath>

<text clip-path="url(#Mask_Mask_8)" writing-mode="lr"><tspan x="58.55" y="13.85" baseline-shift="0%" font-family="Montserrat-Bold" font-weight="bold" font-size="14.3" fill="#FFFFFF" xml:space="preserve">Use </tspan><tspan x="12.3" y="34.15" baseline-shift="0%" font-family="Montserrat-Bold" font-weight="bold" font-size="14.3" fill="#FFFFFF" xml:space="preserve">experimentation </tspan><tspan baseline-shift="0%" font-family="Montserrat-Bold" font-weight="bold" font-size="14.3" fill="#FFFFFF" xml:space="preserve"></tspan><tspan x="38.3" y="54.45" baseline-shift="0%" font-family="Montserrat-Bold" font-weight="bold" font-size="14.3" fill="#FFFFFF" xml:space="preserve">to inform </tspan><tspan x="12.9" y="74.75" baseline-shift="0%" font-family="Montserrat-Bold" font-weight="bold" font-size="14.3" fill="#FFFFFF" xml:space="preserve">decision making</tspan></text>
</g>
</g>

<g id="pie_04" transform="matrix( 1.18145751953125, 0, 0, 1.18145751953125, 369.35,370) ">
<g transform="matrix( 1, 0, 0, 1, 0,0) ">
<use xlink:href="#pie_06_0_Layer0_0_FILL"/>
</g>

<g transform="matrix( 1, 0, 0, 1, -315,-315) ">
<use xlink:href="#pie_06_0_Layer0_1_FILL"/>
</g>

<g transform="matrix( 1, 0, 0, 1, 60.55,125.15) ">
<clipPath id="Mask_Mask_9">
<rect x="38.5" y="-2" width="67" height="62.05" fill="#FFFFFF" stroke="none"/>
</clipPath>

<text clip-path="url(#Mask_Mask_9)" writing-mode="lr"><tspan x="46.55" y="13.85" baseline-shift="0%" font-family="Montserrat-Bold" font-weight="bold" font-size="14.3" fill="#FFFFFF" xml:space="preserve">Grow a </tspan><tspan x="42.45" y="34.15" baseline-shift="0%" font-family="Montserrat-Bold" font-weight="bold" font-size="14.3" fill="#FFFFFF" xml:space="preserve">learning </tspan><tspan x="46.15" y="54.45" baseline-shift="0%" font-family="Montserrat-Bold" font-weight="bold" font-size="14.3" fill="#FFFFFF" xml:space="preserve">culture</tspan></text>
</g>
</g>

<g id="pie_03" transform="matrix( 1.18145751953125, 0, 0, 1.18145751953125, 369.35,312.1) ">
<g transform="matrix( 1, 0, 0, 1, -670.6,-451.75) ">
<use xlink:href="#pie_07_0_Layer0_0_FILL"/>
</g>

<g transform="matrix( 1, 0, 0, 1, -670.6,-451.75) ">
<use xlink:href="#pie_07_0_Layer0_1_FILL"/>
</g>

<g transform="matrix( 1, 0, 0, 1, 120.15,39.2) ">
<clipPath id="Mask_Mask_10">
<rect x="26.45" y="-2" width="91.1" height="82.35" fill="#FFFFFF" stroke="none"/>
</clipPath>

<text clip-path="url(#Mask_Mask_10)" writing-mode="lr"><tspan x="40.35" y="13.85" baseline-shift="0%" font-family="Montserrat-Bold" font-weight="bold" font-size="14.3" fill="#FFFFFF" xml:space="preserve">Use data </tspan><tspan x="32.4" y="34.15" baseline-shift="0%" font-family="Montserrat-Bold" font-weight="bold" font-size="14.3" fill="#FFFFFF" xml:space="preserve">to improve </tspan><tspan x="30.4" y="54.45" baseline-shift="0%" font-family="Montserrat-Bold" font-weight="bold" font-size="14.3" fill="#FFFFFF" xml:space="preserve">operational </tspan><tspan x="35.65" y="74.75" baseline-shift="0%" font-family="Montserrat-Bold" font-weight="bold" font-size="14.3" fill="#FFFFFF" xml:space="preserve">processes</tspan></text>
</g>
</g>

<g id="pie_02" transform="matrix( 1.18145751953125, 0, 0, 1.18145751953125, 369.35,115.1) ">
<g transform="matrix( 1, 0, 0, 1, 0,0) ">
<use xlink:href="#pie_08_0_Layer0_0_FILL"/>
</g>

<g transform="matrix( 1, 0, 0, 1, -670.6,-285.05) ">
<use xlink:href="#pie_08_0_Layer0_1_FILL"/>
</g>

<g transform="matrix( 1, 0, 0, 1, 102.65,93.55) ">
<clipPath id="Mask_Mask_11">
<rect x="25.75" y="-2" width="92.5" height="62.05" fill="#FFFFFF" stroke="none"/>
</clipPath>

<text clip-path="url(#Mask_Mask_11)" writing-mode="lr"><tspan x="30.7" y="13.85" baseline-shift="0%" font-family="Montserrat-Bold" font-weight="bold" font-size="14.3" fill="#FFFFFF" xml:space="preserve">Use data to </tspan><tspan x="29.7" y="34.15" baseline-shift="0%" font-family="Montserrat-Bold" font-weight="bold" font-size="14.3" fill="#FFFFFF" xml:space="preserve">gain insight </tspan><tspan x="36.45" y="54.45" baseline-shift="0%" font-family="Montserrat-Bold" font-weight="bold" font-size="14.3" fill="#FFFFFF" xml:space="preserve">into users</tspan></text>
</g>
</g>

<g id="pie_01" transform="matrix( 1.18145751953125, 0, 0, 1.18145751953125, 369.25,370) ">
<g transform="matrix( 1, 0, 0, 1, 0,0) ">
<use xlink:href="#pie_09_0_Layer0_0_FILL"/>
</g>

<g transform="matrix( 1, 0, 0, 1, -670.55,-500.75) ">
<use xlink:href="#pie_09_0_Layer0_1_FILL"/>
</g>

<g transform="matrix( 1, 0, 0, 1, -2.55,-223.35) ">
<clipPath id="Mask_Mask_12">
<rect x="29.5" y="-2" width="85" height="82.35" fill="#FFFFFF" stroke="none"/>
</clipPath>

<text clip-path="url(#Mask_Mask_12)" writing-mode="lr"><tspan x="41.75" y="13.85" baseline-shift="0%" font-family="Montserrat-Bold" font-weight="bold" font-size="14.3" fill="#FFFFFF" xml:space="preserve">Improve </tspan><tspan x="38" y="34.15" baseline-shift="0%" font-family="Montserrat-Bold" font-weight="bold" font-size="14.3" fill="#FFFFFF" xml:space="preserve">reliability </tspan><tspan x="31.55" y="54.45" baseline-shift="0%" font-family="Montserrat-Bold" font-weight="bold" font-size="14.3" fill="#FFFFFF" xml:space="preserve">and quality</tspan><tspan x="46.3" y="74.75" baseline-shift="0%" font-family="Montserrat-Bold" font-weight="bold" font-size="14.3" fill="#FFFFFF" xml:space="preserve">of data</tspan></text>
</g>
</g>

<g id="circles_mc" transform="matrix( 1, 0, 0, 1, 370,370) ">
<g transform="matrix( 1, 0, 0, 1, 0,0) ">
<g transform="matrix( 1, 0, 0, 1, 0,0) ">
<use xlink:href="#greyCircle_mc_0_Layer0_0_FILL"/>
</g>
</g>
</g>

<g id="cog_medium" transform="matrix( 1.18145751953125, 0, 0, 1.18145751953125, 369.95,370) ">
<g transform="matrix( 1, 0, 0, 1, 0,0) ">
<use xlink:href="#cog_medium_0_Layer0_0_1_STROKES"/>
</g>

<g transform="matrix( 1, 0, 0, 1, -132.35,-134.5) ">
<g transform="matrix( 1, 0, 0, 1, 0,0) ">
<use filter="url(#Filter_2)" xlink:href="#_Group__1_0_Layer0_0_MEMBER_0_FILL"/>
</g>
</g>
</g>

<g id="cog_small" transform="matrix( 1.18145751953125, 0, 0, 1.18145751953125, 370,369.95) ">
<g transform="matrix( 1, 0, 0, 1, 0,0) ">
<use filter="url(#Filter_3)" xlink:href="#cog_small_0_Layer2_0_FILL"/>
</g>

<g transform="matrix( 1, 0, 0, 1, 0,0) ">
<use filter="url(#Filter_3)" xlink:href="#cog_small_0_Layer1_0_FILL"/>
</g>

<g transform="matrix( 1, 0, 0, 1, 0,0) ">
<use filter="url(#Filter_3)" xlink:href="#cog_small_0_Layer0_0_FILL"/>
</g>
</g>
</svg>
