<?xml version="1.0" encoding="UTF-8" standalone="no"?>
<!-- Created with Inkscape (http://www.inkscape.org/) -->

<svg
   width="221.561mm"
   height="221.94501mm"
   viewBox="0 0 221.561 221.94501"
   version="1.1"
   id="svg26252"
   xmlns="http://www.w3.org/2000/svg"
   xmlnsSvg="http://www.w3.org/2000/svg">
  <defs
     id="defs26249">
    <clipPath
       id="clip4">
      <path
         d="M 358,187 H 984 V 814 H 358 Z m 0,0"
         id="path5809" />
    </clipPath>
    <clipPath
       id="clip5">
      <path
         d="m 666.12891,189.28906 c -1.21485,1.03906 -2.10157,2.5 -2.26172,4.19922 -0.17578,1.87891 -1.03907,11 -1.82813,19.375 -4.33594,0.125 -8.65234,0.34766 -12.9414,0.66406 -1.66016,-8.24218 -3.46094,-17.21093 -3.83204,-19.05859 -0.34375,-1.67188 -1.375,-3.03516 -2.69531,-3.94141 -1.32422,-0.90234 -2.93359,-1.35937 -4.63281,-1.18359 -1.6875,0.17578 -3.17578,0.95703 -4.28516,2.12109 -1.10156,1.16016 -1.82812,2.70703 -1.8125,4.41797 0.0195,1.87891 0.11328,11.02344 0.20313,19.42969 -4.29688,0.57812 -8.57422,1.23828 -12.8086,2.00391 -2.50781,-8.01172 -5.23046,-16.71875 -5.78906,-18.51563 -0.51562,-1.62891 -1.68359,-2.87109 -3.09375,-3.63672 -1.40625,-0.76172 -3.0625,-1.04687 -4.73047,-0.6914 -1.66797,0.35156 -3.05859,1.28515 -4.03906,2.55859 -0.97656,1.26953 -1.54297,2.88281 -1.34766,4.58203 0.21875,1.86328 1.26563,10.92969 2.23047,19.27344 -4.21484,1.02734 -8.39453,2.14062 -12.53906,3.35156 -3.32031,-7.70312 -6.9375,-16.07422 -7.68359,-17.79687 -0.67969,-1.56641 -1.96875,-2.6836 -3.45313,-3.29297 -1.48047,-0.60547 -3.14844,-0.71875 -4.77344,-0.19532 -1.62109,0.52735 -2.91015,1.59766 -3.75,2.97266 -0.83593,1.36328 -1.23828,3.02734 -0.85937,4.69141 0.41016,1.83593 2.39453,10.73047 4.21875,18.92187 -4.07813,1.46875 -8.11328,3.02735 -12.10938,4.66406 -4.10937,-7.3125 -8.58203,-15.25781 -9.49609,-16.89453 -0.83984,-1.48828 -2.24219,-2.46093 -3.78516,-2.91406 -1.53125,-0.44922 -3.20703,-0.38672 -4.76562,0.30469 -1.55469,0.69531 -2.72656,1.89453 -3.42578,3.34765 -0.6836,1.44141 -0.90235,3.14454 -0.35938,4.75782 0.59766,1.78515 3.5,10.41797 6.17188,18.37109 -3.89844,1.88672 -7.75,3.86328 -11.55469,5.91797 -4.85156,-6.84375 -10.12891,-14.28125 -11.21484,-15.8125 -0.98828,-1.39063 -2.48438,-2.21484 -4.0625,-2.50391 -1.57422,-0.28515 -3.23047,-0.0508 -4.70703,0.80469 -1.48047,0.85547 -2.51563,2.16797 -3.0586,3.6875 -0.53125,1.50391 -0.57422,3.21875 0.13672,4.76953 0.78125,1.71094 4.58594,10.02344 8.07422,17.66406 -3.67578,2.28125 -7.30469,4.63672 -10.86719,7.07813 -5.55078,-6.30078 -11.58203,-13.16406 -12.82422,-14.58203 -1.13281,-1.26953 -2.70703,-1.9375 -4.30468,-2.0625 -1.59375,-0.11719 -3.21875,0.29687 -4.59766,1.29687 -1.37891,1.00391 -2.27734,2.42188 -2.65625,3.98438 -0.375,1.55469 -0.23438,3.26562 0.63281,4.73047 0.95703,1.625 5.60938,9.5039 9.88281,16.74609 -3.41015,2.64844 -6.76562,5.37891 -10.05468,8.17578 -6.1836,-5.69531 -12.91407,-11.89844 -14.30078,-13.17578 -1.26172,-1.15234 -2.89063,-1.64844 -4.4961,-1.60156 -1.59765,0.0469 -3.17578,0.6289 -4.4414,1.76953 -1.26172,1.14062 -2.00391,2.64453 -2.22266,4.23828 -0.20703,1.58984 0.10547,3.26953 1.125,4.64453 1.12109,1.50781 6.57031,8.85938 11.57812,15.61719 -3.12109,2.98828 -6.17578,6.04687 -9.16015,9.17578 -6.73828,-5.01562 -14.07422,-10.47656 -15.58594,-11.60156 -1.37109,-1.01172 -3.04687,-1.33594 -4.63672,-1.1211 -1.58594,0.21485 -3.08984,0.95313 -4.22656,2.22266 -1.14844,1.26953 -1.72656,2.84375 -1.77344,4.44922 -0.043,1.60156 0.44531,3.24609 1.60156,4.5 1.26954,1.38281 7.46485,8.13281 13.15235,14.32812 -2.79688,3.29688 -5.51953,6.65625 -8.16406,10.07813 -7.22657,-4.28516 -15.09375,-8.94531 -16.71485,-9.90625 -1.47265,-0.86328 -3.16015,-1.01172 -4.72656,-0.63281 -1.55078,0.38281 -2.96875,1.27343 -3.97266,2.65625 -0.99609,1.38281 -1.41797,3.00781 -1.29297,4.60937 0.125,1.59375 0.78125,3.17969 2.0586,4.3086 1.41015,1.24218 8.25781,7.28906 14.55078,12.85156 -2.42969,3.57031 -4.78516,7.20312 -7.0625,10.88281 -7.62891,-3.49219 -15.91797,-7.30078 -17.62891,-8.08594 -1.55468,-0.70703 -3.25781,-0.67187 -4.76953,-0.13281 -1.5039,0.53906 -2.82422,1.57813 -3.67969,3.05859 -0.85156,1.47657 -1.08984,3.14063 -0.80078,4.71875 0.28516,1.57422 1.10938,3.07813 2.5,4.06641 1.53125,1.08984 8.94922,6.37109 15.78516,11.23828 -2.05078,3.8086 -4.02344,7.66406 -5.91016,11.57031 -7.93359,-2.67187 -16.55468,-5.58203 -18.33203,-6.18359 -1.62109,-0.53516 -3.30469,-0.32812 -4.75781,0.37109 -1.4375,0.69532 -2.64063,1.86329 -3.33594,3.42188 -0.6914,1.5625 -0.76172,3.23828 -0.30859,4.78125 0.45312,1.53516 1.42578,2.94531 2.91015,3.78125 1.63282,0.92187 9.5625,5.39844 16.86329,9.51953 -1.63282,3.99609 -3.19141,8.04297 -4.65235,12.13281 -8.17578,-1.83203 -17.05078,-3.82031 -18.88672,-4.23437 -1.66797,-0.36328 -3.32422,0.0234 -4.6914,0.86328 -1.35938,0.84375 -2.4336,2.13672 -2.95703,3.76172 -0.53125,1.62109 -0.41797,3.29687 0.1875,4.78515 0.61328,1.47266 1.72656,2.77735 3.28515,3.45313 1.72656,0.74609 10.07813,4.36719 17.77344,7.69922 -1.21484,4.14844 -2.32422,8.33594 -3.34766,12.5625 -8.32422,-0.97266 -17.375,-2.02344 -19.23828,-2.23828 -1.69922,-0.1875 -3.30859,0.37109 -4.57422,1.35156 -1.26953,0.97656 -2.20312,2.37109 -2.55468,4.04687 -0.35938,1.66797 -0.0742,3.32422 0.6875,4.73438 0.76171,1.41016 2.0039,2.58594 3.6289,3.09375 1.78906,0.56641 10.48828,3.28906 18.48438,5.80469 -0.76563,4.24218 -1.42578,8.52343 -2.00391,12.83203 -8.38281,-0.0859 -17.51172,-0.1875 -19.38672,-0.20703 -1.71094,-0.0117 -3.25781,0.71484 -4.41406,1.82422 -1.15625,1.10546 -1.9375,2.59375 -2.11719,4.28906 -0.17969,1.69922 0.27344,3.3164 1.17969,4.64453 0.90625,1.31641 2.26562,2.35937 3.92969,2.69531 1.84765,0.36719 10.80078,2.17969 19.03125,3.83985 -0.31641,4.29296 -0.53516,8.61718 -0.66407,12.96093 -8.35937,0.79297 -17.47265,1.65625 -19.33984,1.83203 -1.69922,0.16407 -3.15625,1.04688 -4.19922,2.27344 -1.03125,1.22266 -1.65234,2.78125 -1.65234,4.48828 0,1.70703 0.62109,3.26563 1.65625,4.48828 1.04297,1.22657 2.49609,2.10938 4.19531,2.26954 1.875,0.17578 10.98047,1.03906 19.33984,1.83203 0.12891,4.34765 0.34766,8.67187 0.66407,12.96093 -8.23047,1.66407 -17.1836,3.47266 -19.03125,3.84375 -1.66797,0.33985 -3.02735,1.375 -3.9336,2.69922 -0.90625,1.32422 -1.35547,2.9375 -1.17578,4.64063 0.17188,1.69922 0.95703,3.18359 2.11719,4.28906 1.15625,1.10938 2.70312,1.83984 4.40625,1.81641 1.88281,-0.0156 11.00781,-0.11328 19.39453,-0.20313 0.57813,4.3086 1.23828,8.58985 2.00391,12.83594 -7.9961,2.51172 -16.69532,5.24219 -18.48828,5.80078 -1.625,0.51172 -2.86719,1.68359 -3.62891,3.09375 -0.75781,1.41797 -1.04297,3.07031 -0.68359,4.74219 0.34765,1.66797 1.28125,3.0625 2.55468,4.04297 1.26563,0.98047 2.875,1.54297 4.57032,1.34765 1.86328,-0.21875 10.91796,-1.26562 19.24218,-2.23047 1.02344,4.22266 2.13672,8.41016 3.34766,12.5586 -7.69531,3.33203 -16.05078,6.95312 -17.77344,7.70312 -1.5625,0.67188 -2.67187,1.96875 -3.28515,3.45313 -0.61329,1.48437 -0.71875,3.16015 -0.1875,4.78515 0.51953,1.6211 1.59375,2.91407 2.95703,3.75782 1.36718,0.83984 3.02343,1.23437 4.6875,0.85937 1.83203,-0.41406 10.71484,-2.39844 18.89062,-4.23047 1.46094,4.08594 3.01953,8.12891 4.65235,12.12891 -7.30079,4.125 -15.23047,8.60156 -16.86329,9.52344 -1.48437,0.83593 -2.45703,2.24218 -2.91015,3.78515 -0.45703,1.53907 -0.38672,3.21485 0.30859,4.77735 0.69531,1.5625 1.89453,2.73047 3.33594,3.42578 1.44922,0.6914 3.13672,0.91015 4.75391,0.36328 1.77734,-0.59766 10.39843,-3.50391 18.33593,-6.18359 1.88672,3.91015 3.85938,7.76171 5.91016,11.57031 -6.83594,4.86719 -14.25781,10.15234 -15.78516,11.24219 -1.39062,0.98828 -2.21875,2.48828 -2.5,4.0664 -0.28906,1.58203 -0.0508,3.24219 0.80078,4.72266 0.85157,1.47265 2.17188,2.51562 3.67969,3.05469 1.50781,0.53515 3.21485,0.57421 4.76563,-0.13672 1.70703,-0.78125 10.0039,-4.58985 17.63281,-8.08985 2.27734,3.6875 4.63281,7.31641 7.0625,10.89063 -6.29297,5.55859 -13.14063,11.60547 -14.55078,12.85156 -1.27735,1.12891 -1.9336,2.70703 -2.06641,4.30859 -0.11719,1.60157 0.30078,3.22657 1.30078,4.60938 1,1.37891 2.41797,2.27344 3.97266,2.65234 1.55859,0.375 3.26172,0.23438 4.72656,-0.6289 1.6211,-0.96485 9.48828,-5.6211 16.71485,-9.90625 2.64453,3.42578 5.36718,6.78125 8.16406,10.07812 -5.6875,6.19531 -11.88281,12.94141 -13.15625,14.32813 -1.15235,1.2539 -1.64453,2.89453 -1.59766,4.5 0.0469,1.60547 0.625,3.17968 1.77344,4.44531 1.13672,1.26953 2.63672,2.01172 4.22656,2.22266 1.58985,0.21875 3.26563,-0.10157 4.63281,-1.11719 1.50782,-1.125 8.85157,-6.58203 15.58985,-11.60156 2.98437,3.125 6.03906,6.1875 9.16015,9.17578 -5.00781,6.75781 -10.45703,14.10547 -11.57812,15.62109 -1.01953,1.36719 -1.33203,3.05078 -1.125,4.64453 0.21484,1.58985 0.95703,3.09375 2.22266,4.23438 1.26562,1.14453 2.83984,1.72656 4.4414,1.76953 1.60156,0.0469 3.23828,-0.44922 4.49219,-1.60547 1.38672,-1.27344 8.12109,-7.47656 14.30469,-13.17578 3.28906,2.79687 6.64453,5.52734 10.05468,8.17578 -4.27343,7.24219 -8.92578,15.12891 -9.88281,16.74609 -0.86719,1.46875 -1.01562,3.17578 -0.6289,4.73828 0.375,1.5625 1.26953,2.97657 2.65234,3.98047 1.375,1 3.00391,1.41407 4.59766,1.29297 1.59375,-0.12109 3.17187,-0.78906 4.29687,-2.0625 1.24609,-1.41406 7.28125,-8.27734 12.83203,-14.58203 3.5625,2.44141 7.19141,4.79688 10.86328,7.07813 -3.48437,7.64062 -7.28906,15.95703 -8.07031,17.66796 -0.71094,1.55079 -0.67187,3.25782 -0.13281,4.77344 0.53515,1.51172 1.57422,2.82813 3.05469,3.6836 1.47656,0.84765 3.13281,1.08984 4.70703,0.80468 1.57422,-0.28906 3.07422,-1.11328 4.0625,-2.5 1.08593,-1.53906 6.36328,-8.97265 11.21484,-15.8164 3.80469,2.05078 7.65234,4.02343 11.55469,5.91015 -2.67578,7.95703 -5.57422,16.59766 -6.17188,18.375 -0.53906,1.6211 -0.32812,3.31641 0.36328,4.76563 0.69532,1.44922 1.86329,2.64844 3.42579,3.33594 1.55078,0.69531 3.23046,0.76562 4.76562,0.3125 1.53516,-0.45313 2.94141,-1.42579 3.77734,-2.91407 0.91797,-1.63672 5.39063,-9.58203 9.5,-16.89843 3.9961,1.64453 8.03125,3.19921 12.10938,4.66406 -1.82422,8.1914 -3.8125,17.09375 -4.21875,18.92578 -0.37109,1.66406 0.0195,3.33203 0.85937,4.69531 0.83985,1.3711 2.12891,2.4375 3.75,2.96875 1.6211,0.52344 3.29297,0.41797 4.77344,-0.19922 1.48438,-0.60937 2.77735,-1.72656 3.44922,-3.28906 0.75,-1.72656 4.36719,-10.09375 7.6875,-17.79687 4.14453,1.20703 8.31641,2.32031 12.53906,3.35156 -0.96875,8.34375 -2.01172,17.40625 -2.23047,19.27344 -0.19531,1.69921 0.36719,3.3164 1.35547,4.58593 0.97266,1.26953 2.35938,2.19922 4.03516,2.55469 1.66406,0.35156 3.32031,0.0703 4.73047,-0.69141 1.40625,-0.76562 2.57812,-2.00781 3.08984,-3.63671 0.5586,-1.79297 3.28125,-10.50391 5.78906,-18.51954 4.23438,0.76954 8.50782,1.42579 12.80469,2.00391 -0.0898,8.40625 -0.17969,17.55469 -0.19922,19.4375 -0.0156,1.70703 0.70703,3.25391 1.82032,4.41406 1.10156,1.16407 2.58593,1.94141 4.28125,2.1211 1.69531,0.17968 3.30859,-0.27735 4.63281,-1.1875 1.3164,-0.90235 2.35156,-2.26563 2.6914,-3.9375 0.3711,-1.84766 2.17188,-10.81641 3.83204,-19.0625 4.28906,0.3164 8.60156,0.53906 12.9375,0.66406 0.79296,8.37891 1.65625,17.50391 1.83203,19.37891 0.16015,1.69531 1.04297,3.16015 2.27343,4.19921 1.21094,1.04297 2.76954,1.66407 4.47657,1.66016 1.70312,0 3.26172,-0.625 4.48047,-1.66016 1.21484,-1.04296 2.10937,-2.5039 2.26562,-4.20312 0.17578,-1.87891 1.03516,-10.99609 1.82422,-19.375 4.33984,-0.125 8.65625,-0.34766 12.94531,-0.66406 1.65625,8.24609 3.46094,17.21875 3.83594,19.07031 0.33984,1.66797 1.36719,3.03125 2.69531,3.93359 1.32031,0.91016 2.9336,1.36719 4.62891,1.1836 1.6914,-0.17969 3.17969,-0.96094 4.28515,-2.125 1.09766,-1.16016 1.83204,-2.70313 1.8125,-4.41797 -0.0195,-1.87891 -0.11718,-11.02344 -0.20312,-19.42969 4.30078,-0.57812 8.57422,-1.23437 12.80859,-2.00391 2.50782,8.01563 5.22657,16.73047 5.79297,18.52344 0.51172,1.62891 1.67969,2.875 3.09766,3.63281 1.40234,0.76563 3.05859,1.04688 4.72656,0.69141 1.66406,-0.35547 3.05859,-1.28516 4.03906,-2.55859 0.96875,-1.26563 1.53907,-2.88672 1.33985,-4.58594 -0.21485,-1.86719 -1.26172,-10.92578 -2.22657,-19.26953 4.21485,-1.02735 8.39454,-2.14453 12.53516,-3.35156 3.32813,7.70312 6.94531,16.07421 7.6875,17.80078 0.67578,1.5625 1.96875,2.67968 3.45703,3.28906 1.48047,0.61719 3.14844,0.72266 4.76953,0.19531 1.625,-0.53125 2.91407,-1.60156 3.75391,-2.96875 0.83594,-1.36719 1.23047,-3.03125 0.85547,-4.69922 -0.41016,-1.83203 -2.39063,-10.73047 -4.22266,-18.92187 4.07813,-1.46485 8.11719,-3.01953 12.10547,-4.66016 4.12109,7.3125 8.59375,15.25781 9.51563,16.89844 0.83593,1.48437 2.23437,2.45703 3.77343,2.91016 1.53516,0.45312 3.21485,0.38671 4.77344,-0.3125 1.55078,-0.69141 2.72656,-1.89063 3.41406,-3.33985 0.69532,-1.44531 0.91016,-3.14453 0.36328,-4.76562 -0.59765,-1.77344 -3.5,-10.41407 -6.16796,-18.3711 3.89453,-1.88281 7.74609,-3.85937 11.54687,-5.91015 4.85938,6.84765 10.13281,14.28125 11.22656,15.82031 0.98438,1.38672 2.48047,2.21094 4.06641,2.49219 1.57031,0.29687 3.22656,0.0508 4.69922,-0.80078 1.48047,-0.85547 2.51953,-2.17579 3.05859,-3.6875 0.53125,-1.51172 0.57422,-3.22266 -0.13672,-4.77344 -0.78515,-1.71485 -4.58593,-10.02344 -8.07812,-17.66406 3.67969,-2.28125 7.30469,-4.63672 10.86719,-7.07422 5.54687,6.30078 11.58984,13.16406 12.83593,14.57812 1.125,1.28125 2.69532,1.94531 4.30078,2.0625 1.59766,0.125 3.22266,-0.28906 4.59766,-1.29687 1.37891,-1 2.27344,-2.42578 2.65234,-3.98047 0.3711,-1.5586 0.23047,-3.26563 -0.63281,-4.73828 -0.95703,-1.61719 -5.61328,-9.5 -9.89062,-16.74219 3.41797,-2.64453 6.77343,-5.375 10.05468,-8.17578 6.1875,5.69922 12.92969,11.90234 14.31641,13.17969 1.25,1.15234 2.87891,1.64843 4.49219,1.59765 1.60156,-0.0391 3.17187,-0.62109 4.43359,-1.76953 1.26953,-1.13672 2.01172,-2.64453 2.22266,-4.23828 0.21094,-1.58594 -0.0977,-3.27344 -1.125,-4.64453 -1.11719,-1.51172 -6.57031,-8.85547 -11.57813,-15.60938 3.1211,-2.99218 6.17578,-6.05468 9.16016,-9.17968 6.74219,5.01953 14.08594,10.47656 15.60156,11.60156 1.36328,1.01953 3.03125,1.33984 4.62891,1.11719 1.58984,-0.20313 3.08594,-0.94532 4.23047,-2.22266 1.14062,-1.26953 1.71875,-2.84375 1.76172,-4.44531 0.0469,-1.60547 -0.44532,-3.2461 -1.60157,-4.50391 -1.26953,-1.38281 -7.46093,-8.12891 -13.14843,-14.32031 2.79296,-3.30078 5.51171,-6.65235 8.16015,-10.08203 7.22656,4.28515 15.09766,8.94531 16.72266,9.90625 1.46094,0.86328 3.16406,1.01172 4.72265,0.625 1.5586,-0.3711 2.97266,-1.26953 3.97266,-2.65235 1.00391,-1.3789 1.41406,-3.01172 1.28906,-4.60937 -0.12109,-1.59766 -0.77734,-3.17578 -2.0625,-4.3086 -1.40625,-1.24218 -8.25781,-7.28906 -14.54687,-12.84765 2.43359,-3.57422 4.78906,-7.19922 7.0625,-10.88672 7.6289,3.5 15.93359,7.30469 17.64062,8.08594 1.54688,0.71093 3.25,0.67968 4.76172,0.13281 1.50781,-0.53516 2.82422,-1.57813 3.67578,-3.05469 0.85157,-1.47656 1.09375,-3.14062 0.80469,-4.72265 -0.29297,-1.57422 -1.10547,-3.07422 -2.5,-4.06641 -1.53125,-1.08594 -8.94922,-6.37109 -15.78906,-11.23828 2.05469,-3.80469 4.02344,-7.66016 5.91015,-11.56641 7.94141,2.67578 16.5625,5.58203 18.34375,6.17969 1.61329,0.54687 3.30469,0.33203 4.75391,-0.36719 1.44531,-0.6914 2.64453,-1.85937 3.33203,-3.42578 0.69531,-1.55859 0.76172,-3.23828 0.3086,-4.77734 -0.45704,-1.53516 -1.42188,-2.94532 -2.91407,-3.78516 -1.63281,-0.92187 -9.5625,-5.39453 -16.86328,-9.51562 1.64063,-4 3.19141,-8.04688 4.65625,-12.12891 8.17578,1.83203 17.0625,3.81641 18.89063,4.22656 1.66406,0.375 3.32031,-0.0156 4.6875,-0.86328 1.36718,-0.83594 2.43359,-2.13281 2.96484,-3.75781 0.52344,-1.6211 0.41406,-3.30078 -0.20312,-4.78516 -0.60547,-1.47656 -1.72266,-2.77734 -3.28125,-3.45312 -1.72266,-0.75 -10.07813,-4.36719 -17.76954,-7.69922 1.21485,-4.14453 2.32422,-8.33203 3.34766,-12.55469 8.32813,0.96875 17.375,2.01172 19.25,2.22656 1.69141,0.19532 3.29688,-0.36328 4.57031,-1.35156 1.26953,-0.97266 2.19922,-2.37109 2.55078,-4.04297 0.35547,-1.66797 0.0703,-3.32422 -0.69531,-4.73828 -0.7539,-1.41016 -1.99609,-2.58203 -3.6289,-3.09375 -1.79297,-0.56641 -10.48438,-3.28906 -18.48438,-5.79687 0.76953,-4.2461 1.42188,-8.52735 2,-12.83594 8.39453,0.0898 17.52344,0.1875 19.40625,0.19922 1.69922,0.0234 3.24219,-0.70703 4.40234,-1.82032 1.16797,-1.10156 1.94141,-2.58593 2.1211,-4.28515 0.17578,-1.70313 -0.28125,-3.32031 -1.1875,-4.64453 -0.89844,-1.31641 -2.25781,-2.35938 -3.9336,-2.69532 -1.84375,-0.37109 -10.79296,-2.17968 -19.02343,-3.83984 0.3164,-4.29297 0.53906,-8.61719 0.66406,-12.96484 8.35937,-0.79297 17.46484,-1.65625 19.33594,-1.83203 1.69531,-0.16016 3.15625,-1.04297 4.1914,-2.26954 1.03907,-1.22265 1.66407,-2.78125 1.66407,-4.48828 0,-1.70703 -0.6211,-3.26562 -1.66016,-4.48828 -1.03516,-1.22656 -2.5,-2.10937 -4.19531,-2.27344 -1.86328,-0.17578 -10.96875,-1.03515 -19.33594,-1.83203 -0.125,-4.34375 -0.34766,-8.66797 -0.66406,-12.96484 8.23047,-1.66016 17.17968,-3.46875 19.02734,-3.83594 1.66797,-0.33594 3.02734,-1.375 3.92969,-2.69922 0.90625,-1.32422 1.36328,-2.9414 1.1875,-4.64062 -0.17969,-1.69922 -0.95703,-3.1836 -2.1211,-4.28906 -1.16015,-1.10938 -2.70703,-1.83985 -4.40234,-1.82032 -1.88281,0.0195 -11.01172,0.11719 -19.40625,0.20313 -0.57812,-4.3086 -1.23047,-8.58985 -2,-12.83203 8,-2.51563 16.69141,-5.23828 18.48438,-5.80469 1.6289,-0.51172 2.86718,-1.67969 3.6289,-3.09375 0.76563,-1.41016 1.04688,-3.06641 0.69531,-4.73438 -0.35546,-1.67578 -1.28515,-3.07031 -2.55078,-4.04687 -1.27343,-0.98047 -2.88672,-1.54297 -4.57812,-1.35156 -1.86719,0.21484 -10.91016,1.26172 -19.24219,2.23437 -1.02344,-4.22265 -2.13281,-8.41015 -3.34766,-12.55859 7.69141,-3.33203 16.04688,-6.95313 17.76954,-7.69922 1.55859,-0.67578 2.67578,-1.97266 3.28125,-3.45703 0.61718,-1.48828 0.72656,-3.16016 0.20312,-4.78516 -0.53516,-1.62109 -1.60156,-2.91406 -2.96484,-3.75781 -1.35938,-0.83984 -3.02344,-1.23438 -4.69141,-0.85938 -1.82812,0.41016 -10.71094,2.39844 -18.88672,4.22657 -1.46094,-4.08594 -3.01562,-8.13282 -4.65625,-12.12891 7.30078,-4.12109 15.23047,-8.59766 16.86328,-9.51953 1.48828,-0.83984 2.45703,-2.24219 2.91016,-3.78125 0.45312,-1.54297 0.39062,-3.21875 -0.30469,-4.78125 -0.69531,-1.55859 -1.89062,-2.73438 -3.33594,-3.42578 -1.44531,-0.69531 -3.14062,-0.91016 -4.7539,-0.36719 -1.77735,0.60156 -10.39844,3.51172 -18.33985,6.18359 -1.88671,-3.91015 -3.85546,-7.76171 -5.91015,-11.57031 6.83203,-4.86719 14.25781,-10.14844 15.78906,-11.24219 1.39063,-0.98828 2.20703,-2.48046 2.49609,-4.0625 0.28907,-1.57812 0.0508,-3.24218 -0.80078,-4.71875 -0.85156,-1.48046 -2.16797,-2.51953 -3.67578,-3.05859 -1.51172,-0.53906 -3.21875,-0.57812 -4.76562,0.13281 -1.70703,0.78516 -10.00782,4.58985 -17.63672,8.08594 -2.27344,-3.67969 -4.62891,-7.3125 -7.0625,-10.88281 6.28906,-5.5625 13.14062,-11.60938 14.55469,-12.85156 1.27343,-1.13282 1.93359,-2.71094 2.05468,-4.3086 0.1211,-1.60156 -0.28515,-3.22656 -1.28906,-4.60937 -1.00391,-1.38282 -2.41797,-2.27735 -3.97656,-2.65625 -1.55469,-0.37891 -3.25781,-0.23438 -4.72266,0.63281 -1.62109,0.96094 -9.49219,5.62109 -16.71484,9.90234 -2.64844,-3.41797 -5.3711,-6.77734 -8.16406,-10.07812 5.6875,-6.19141 11.8789,-12.94141 13.14843,-14.32422 1.15625,-1.25781 1.64844,-2.89453 1.60157,-4.50391 -0.0469,-1.59765 -0.62891,-3.17187 -1.76172,-4.44531 -1.14453,-1.26953 -2.64453,-2.01172 -4.23438,-2.22266 -1.58984,-0.21484 -3.26562,0.10547 -4.6289,1.1211 -1.51172,1.125 -8.85547,6.58203 -15.59375,11.60156 -2.98829,-3.12891 -6.04297,-6.1875 -9.16407,-9.17578 5.00782,-6.75781 10.46094,-14.10547 11.57813,-15.61719 1.01562,-1.375 1.33594,-3.05078 1.125,-4.64453 -0.21485,-1.58984 -0.95313,-3.09766 -2.22266,-4.23828 -1.26953,-1.14063 -2.83594,-1.72656 -4.44531,-1.77344 -1.60156,-0.043 -3.23047,0.44531 -4.48047,1.60547 -1.38672,1.27734 -8.12891,7.48047 -14.3125,13.17578 -3.28516,-2.80078 -6.64062,-5.52734 -10.05859,-8.17578 4.27734,-7.24219 8.93359,-15.12109 9.89062,-16.74609 0.86328,-1.46485 1.00391,-3.16797 0.62891,-4.73047 -0.37891,-1.5586 -1.26953,-2.98047 -2.64844,-3.98438 -1.38281,-1.0039 -3,-1.41797 -4.60156,-1.29687 -1.60156,0.125 -3.17188,0.78906 -4.29688,2.0625 -1.24609,1.41406 -7.28515,8.27734 -12.83593,14.58203 -3.5625,-2.44141 -7.1875,-4.80078 -10.86719,-7.07813 3.49219,-7.64062 7.29297,-15.95312 8.07422,-17.66406 0.70703,-1.55078 0.67187,-3.26172 0.13672,-4.76953 -0.53907,-1.51562 -1.57813,-2.83203 -3.05469,-3.6875 -1.47656,-0.85547 -3.13672,-1.09766 -4.70703,-0.80859 -1.57813,0.28906 -3.07422,1.11328 -4.0625,2.5039 -1.08985,1.53516 -6.36328,8.96875 -11.21875,15.81641 -3.80469,-2.05469 -7.65625,-4.03125 -11.5586,-5.91797 2.67578,-7.94922 5.57813,-16.58203 6.17578,-18.37109 0.54297,-1.61328 0.33204,-3.3125 -0.36328,-4.75782 -0.69531,-1.44531 -1.86328,-2.65234 -3.41406,-3.34765 -1.55859,-0.69141 -3.23828,-0.76172 -4.77734,-0.30469 -1.53125,0.45313 -2.9375,1.42578 -3.76953,2.91016 -0.92188,1.64062 -5.39454,9.58593 -9.51172,16.89843 -3.99219,-1.64062 -8.02735,-3.19921 -12.10938,-4.66406 1.83203,-8.1914 3.8125,-17.08203 4.22266,-18.91797 0.36719,-1.66797 -0.0195,-3.32812 -0.85547,-4.69531 -0.84766,-1.36719 -2.13281,-2.44141 -3.75391,-2.97266 -1.62109,-0.52343 -3.28906,-0.42187 -4.77734,0.19532 -1.47656,0.60937 -2.77344,1.72656 -3.44922,3.28906 -0.74219,1.72656 -4.35937,10.09375 -7.6875,17.80078 -4.14062,-1.21094 -8.32031,-2.32422 -12.53516,-3.35156 0.96485,-8.34375 2.01172,-17.40625 2.22657,-19.27344 0.19531,-1.69531 -0.3711,-3.3125 -1.34766,-4.58203 -0.97266,-1.26953 -2.36719,-2.20313 -4.03516,-2.55859 -1.66406,-0.35547 -3.32031,-0.0742 -4.73437,0.6914 -1.40234,0.76563 -2.57422,2.00781 -3.08594,3.63672 -0.55859,1.79297 -3.28125,10.50391 -5.79297,18.51563 -4.23437,-0.76563 -8.50781,-1.42579 -12.80859,-2.00391 0.0859,-8.40625 0.18359,-17.54688 0.20312,-19.42969 0.0195,-1.70703 -0.71484,-3.25781 -1.8125,-4.41797 -1.10937,-1.15625 -2.59375,-1.9414 -4.28515,-2.12109 -1.69531,-0.17969 -3.3086,0.27344 -4.63672,1.18359 -1.3125,0.90235 -2.35547,2.26953 -2.6875,3.9375 -0.375,1.84766 -2.17969,10.82032 -3.83594,19.0625 -4.28906,-0.3164 -8.60547,-0.53906 -12.94531,-0.66406 -0.78906,-8.375 -1.64844,-17.49609 -1.82422,-19.37109 -0.16016,-1.69922 -1.04687,-3.16407 -2.26562,-4.20313 -1.22266,-1.03515 -2.77735,-1.66015 -4.48047,-1.66406 -1.70703,0.004 -3.26563,0.62109 -4.48828,1.66406 M 421.49219,500.77734 c 0,-137.82812 111.53515,-249.55859 249.125,-249.55859 137.58593,0 249.125,111.73047 249.125,249.55859 0,137.82813 -111.53907,249.55469 -249.125,249.55469 -137.58985,0 -249.125,-111.72656 -249.125,-249.55469"
         id="path5812" />
    </clipPath>
    <linearGradient
       id="linear0"
       gradientUnits="userSpaceOnUse"
       x1="7.0696302e-08"
       y1="0"
       x2="1"
       y2="0"
       gradientTransform="matrix(625.2099,0,0,625.2099,358.01096,500.77644)">
      <stop
         offset="0"
         style="stop-color:rgb(77.6474%,77.6474%,77.6474%);stop-opacity:1;"
         id="stop5815" />
      <stop
         offset="0.015625"
         style="stop-color:rgb(77.6474%,77.6474%,77.6474%);stop-opacity:1;"
         id="stop5817" />
      <stop
         offset="0.03125"
         style="stop-color:rgb(77.255249%,77.255249%,77.255249%);stop-opacity:1;"
         id="stop5819" />
      <stop
         offset="0.046875"
         style="stop-color:rgb(76.863098%,76.863098%,76.863098%);stop-opacity:1;"
         id="stop5821" />
      <stop
         offset="0.0625"
         style="stop-color:rgb(76.470947%,76.470947%,76.470947%);stop-opacity:1;"
         id="stop5823" />
      <stop
         offset="0.078125"
         style="stop-color:rgb(76.078796%,76.078796%,76.078796%);stop-opacity:1;"
         id="stop5825" />
      <stop
         offset="0.09375"
         style="stop-color:rgb(75.686646%,75.686646%,75.686646%);stop-opacity:1;"
         id="stop5827" />
      <stop
         offset="0.109375"
         style="stop-color:rgb(75.294495%,75.294495%,75.294495%);stop-opacity:1;"
         id="stop5829" />
      <stop
         offset="0.125"
         style="stop-color:rgb(74.902344%,74.902344%,74.902344%);stop-opacity:1;"
         id="stop5831" />
      <stop
         offset="0.140625"
         style="stop-color:rgb(74.510193%,74.510193%,74.510193%);stop-opacity:1;"
         id="stop5833" />
      <stop
         offset="0.15625"
         style="stop-color:rgb(74.118042%,74.118042%,74.118042%);stop-opacity:1;"
         id="stop5835" />
      <stop
         offset="0.171875"
         style="stop-color:rgb(73.725891%,73.725891%,73.725891%);stop-opacity:1;"
         id="stop5837" />
      <stop
         offset="0.1875"
         style="stop-color:rgb(73.33374%,73.33374%,73.33374%);stop-opacity:1;"
         id="stop5839" />
      <stop
         offset="0.203125"
         style="stop-color:rgb(72.941589%,72.941589%,72.941589%);stop-opacity:1;"
         id="stop5841" />
      <stop
         offset="0.21875"
         style="stop-color:rgb(72.549438%,72.549438%,72.549438%);stop-opacity:1;"
         id="stop5843" />
      <stop
         offset="0.234375"
         style="stop-color:rgb(72.157288%,72.157288%,72.157288%);stop-opacity:1;"
         id="stop5845" />
      <stop
         offset="0.25"
         style="stop-color:rgb(71.765137%,71.765137%,71.765137%);stop-opacity:1;"
         id="stop5847" />
      <stop
         offset="0.265625"
         style="stop-color:rgb(71.372986%,71.372986%,71.372986%);stop-opacity:1;"
         id="stop5849" />
      <stop
         offset="0.28125"
         style="stop-color:rgb(70.980835%,70.980835%,70.980835%);stop-opacity:1;"
         id="stop5851" />
      <stop
         offset="0.296875"
         style="stop-color:rgb(70.588684%,70.588684%,70.588684%);stop-opacity:1;"
         id="stop5853" />
      <stop
         offset="0.3125"
         style="stop-color:rgb(70.196533%,70.196533%,70.196533%);stop-opacity:1;"
         id="stop5855" />
      <stop
         offset="0.328125"
         style="stop-color:rgb(69.804382%,69.804382%,69.804382%);stop-opacity:1;"
         id="stop5857" />
      <stop
         offset="0.34375"
         style="stop-color:rgb(69.412231%,69.412231%,69.412231%);stop-opacity:1;"
         id="stop5859" />
      <stop
         offset="0.359375"
         style="stop-color:rgb(69.020081%,69.020081%,69.020081%);stop-opacity:1;"
         id="stop5861" />
      <stop
         offset="0.375"
         style="stop-color:rgb(68.62793%,68.62793%,68.62793%);stop-opacity:1;"
         id="stop5863" />
      <stop
         offset="0.390625"
         style="stop-color:rgb(68.235779%,68.235779%,68.235779%);stop-opacity:1;"
         id="stop5865" />
      <stop
         offset="0.40625"
         style="stop-color:rgb(67.843628%,67.843628%,67.843628%);stop-opacity:1;"
         id="stop5867" />
      <stop
         offset="0.421875"
         style="stop-color:rgb(67.451477%,67.451477%,67.451477%);stop-opacity:1;"
         id="stop5869" />
      <stop
         offset="0.4375"
         style="stop-color:rgb(67.059326%,67.059326%,67.059326%);stop-opacity:1;"
         id="stop5871" />
      <stop
         offset="0.453125"
         style="stop-color:rgb(66.667175%,66.667175%,66.667175%);stop-opacity:1;"
         id="stop5873" />
      <stop
         offset="0.46875"
         style="stop-color:rgb(66.275024%,66.275024%,66.275024%);stop-opacity:1;"
         id="stop5875" />
      <stop
         offset="0.484375"
         style="stop-color:rgb(65.882874%,65.882874%,65.882874%);stop-opacity:1;"
         id="stop5877" />
      <stop
         offset="0.5"
         style="stop-color:rgb(65.490723%,65.490723%,65.490723%);stop-opacity:1;"
         id="stop5879" />
      <stop
         offset="0.515625"
         style="stop-color:rgb(65.098572%,65.098572%,65.098572%);stop-opacity:1;"
         id="stop5881" />
      <stop
         offset="0.53125"
         style="stop-color:rgb(64.706421%,64.706421%,64.706421%);stop-opacity:1;"
         id="stop5883" />
      <stop
         offset="0.546875"
         style="stop-color:rgb(64.31427%,64.31427%,64.31427%);stop-opacity:1;"
         id="stop5885" />
      <stop
         offset="0.5625"
         style="stop-color:rgb(63.922119%,63.922119%,63.922119%);stop-opacity:1;"
         id="stop5887" />
      <stop
         offset="0.578125"
         style="stop-color:rgb(63.529968%,63.529968%,63.529968%);stop-opacity:1;"
         id="stop5889" />
      <stop
         offset="0.59375"
         style="stop-color:rgb(63.137817%,63.137817%,63.137817%);stop-opacity:1;"
         id="stop5891" />
      <stop
         offset="0.609375"
         style="stop-color:rgb(62.745667%,62.745667%,62.745667%);stop-opacity:1;"
         id="stop5893" />
      <stop
         offset="0.625"
         style="stop-color:rgb(62.353516%,62.353516%,62.353516%);stop-opacity:1;"
         id="stop5895" />
      <stop
         offset="0.640625"
         style="stop-color:rgb(61.961365%,61.961365%,61.961365%);stop-opacity:1;"
         id="stop5897" />
      <stop
         offset="0.65625"
         style="stop-color:rgb(61.569214%,61.569214%,61.569214%);stop-opacity:1;"
         id="stop5899" />
      <stop
         offset="0.671875"
         style="stop-color:rgb(61.177063%,61.177063%,61.177063%);stop-opacity:1;"
         id="stop5901" />
      <stop
         offset="0.6875"
         style="stop-color:rgb(60.784912%,60.784912%,60.784912%);stop-opacity:1;"
         id="stop5903" />
      <stop
         offset="0.703125"
         style="stop-color:rgb(60.392761%,60.392761%,60.392761%);stop-opacity:1;"
         id="stop5905" />
      <stop
         offset="0.71875"
         style="stop-color:rgb(60.00061%,60.00061%,60.00061%);stop-opacity:1;"
         id="stop5907" />
      <stop
         offset="0.734375"
         style="stop-color:rgb(59.608459%,59.608459%,59.608459%);stop-opacity:1;"
         id="stop5909" />
      <stop
         offset="0.75"
         style="stop-color:rgb(59.216309%,59.216309%,59.216309%);stop-opacity:1;"
         id="stop5911" />
      <stop
         offset="0.765625"
         style="stop-color:rgb(58.824158%,58.824158%,58.824158%);stop-opacity:1;"
         id="stop5913" />
      <stop
         offset="0.78125"
         style="stop-color:rgb(58.432007%,58.432007%,58.432007%);stop-opacity:1;"
         id="stop5915" />
      <stop
         offset="0.796875"
         style="stop-color:rgb(58.039856%,58.039856%,58.039856%);stop-opacity:1;"
         id="stop5917" />
      <stop
         offset="0.8125"
         style="stop-color:rgb(57.647705%,57.647705%,57.647705%);stop-opacity:1;"
         id="stop5919" />
      <stop
         offset="0.828125"
         style="stop-color:rgb(57.255554%,57.255554%,57.255554%);stop-opacity:1;"
         id="stop5921" />
      <stop
         offset="0.84375"
         style="stop-color:rgb(56.863403%,56.863403%,56.863403%);stop-opacity:1;"
         id="stop5923" />
      <stop
         offset="0.859375"
         style="stop-color:rgb(56.471252%,56.471252%,56.471252%);stop-opacity:1;"
         id="stop5925" />
      <stop
         offset="0.875"
         style="stop-color:rgb(56.079102%,56.079102%,56.079102%);stop-opacity:1;"
         id="stop5927" />
      <stop
         offset="0.890625"
         style="stop-color:rgb(55.686951%,55.686951%,55.686951%);stop-opacity:1;"
         id="stop5929" />
      <stop
         offset="0.90625"
         style="stop-color:rgb(55.2948%,55.2948%,55.2948%);stop-opacity:1;"
         id="stop5931" />
      <stop
         offset="0.921875"
         style="stop-color:rgb(54.902649%,54.902649%,54.902649%);stop-opacity:1;"
         id="stop5933" />
      <stop
         offset="0.9375"
         style="stop-color:rgb(54.510498%,54.510498%,54.510498%);stop-opacity:1;"
         id="stop5935" />
      <stop
         offset="0.953125"
         style="stop-color:rgb(54.118347%,54.118347%,54.118347%);stop-opacity:1;"
         id="stop5937" />
      <stop
         offset="0.96875"
         style="stop-color:rgb(53.726196%,53.726196%,53.726196%);stop-opacity:1;"
         id="stop5939" />
      <stop
         offset="0.984375"
         style="stop-color:rgb(53.334045%,53.334045%,53.334045%);stop-opacity:1;"
         id="stop5941" />
      <stop
         offset="1"
         style="stop-color:rgb(52.941895%,52.941895%,52.941895%);stop-opacity:1;"
         id="stop5943" />
    </linearGradient>
    <clipPath
       id="clip6">
      <path
         d="m 317,147 h 707 V 841.89062 H 317 Z m 0,0"
         id="path5946" />
    </clipPath>
  </defs>
  <g
     id="layer1">
    <g
       id="g26506"
       transform="translate(85.16975,77.513587)">
      <g
         clip-path="url(#clip4)"
         clip-rule="nonzero"
         id="g7058"
         transform="matrix(0.35277776,0,0,0.35277776,-210.96826,-143.20345)">
        <g
           clip-path="url(#clip5)"
           clip-rule="nonzero"
           id="g7056">
          <path
             style="fill:url(#linear0);fill-rule:nonzero;stroke:none"
             d="M 358.01172,187.625 V 813.92969 H 983.22266 V 187.625 Z m 0,0"
             id="path7054" />
        </g>
      </g>
      <g
         clip-path="url(#clip6)"
         clip-rule="nonzero"
         id="g7062"
         transform="matrix(0.35277776,0,0,0.35277776,-210.96826,-143.20345)">
        <path
           style="fill:none;stroke:#c5c5c5;stroke-width:2.835;stroke-linecap:butt;stroke-linejoin:miter;stroke-miterlimit:10;stroke-opacity:1"
           d="M -9.125e-4,-3.3125e-4 C -137.58685,-3.3125e-4 -249.12591,111.72623 -249.12591,249.55436 c 0,137.82812 111.53906,249.55859 249.1249975,249.55859 C 137.58502,499.11295 249.12018,387.38248 249.12018,249.55436 249.12018,111.72623 137.58502,-3.3125e-4 -9.125e-4,-3.3125e-4 Z M 306.74909,242.79654 c 1.69531,0.16016 3.15625,1.04297 4.1914,2.26953 1.03907,1.22266 1.66407,2.78125 1.66407,4.48829 0,1.70703 -0.6211,3.26562 -1.66016,4.48828 -1.03516,1.22656 -2.5,2.11328 -4.19531,2.27343 -1.86328,0.17579 -10.96875,1.03516 -19.33594,1.83204 -0.125,4.34375 -0.34766,8.66796 -0.66406,12.96484 8.23437,1.66016 17.17968,3.46875 19.02734,3.83594 1.66797,0.33984 3.02734,1.375 3.92969,2.69922 0.90625,1.32421 1.36328,2.9414 1.1875,4.64062 -0.17969,1.69922 -0.95703,3.18359 -2.1211,4.28906 -1.15625,1.10938 -2.70703,1.83985 -4.40234,1.81641 -1.88281,-0.0156 -11.01172,-0.10938 -19.40625,-0.19922 -0.57422,4.30859 -1.23047,8.58984 -2,12.83203 8,2.51563 16.69141,5.23828 18.48438,5.80469 1.6289,0.51172 2.86718,1.67969 3.6289,3.09375 0.76172,1.41016 1.04688,3.06641 0.69531,4.73437 -0.35546,1.67188 -1.28515,3.07032 -2.55078,4.04688 -1.27343,0.98047 -2.88672,1.54297 -4.57812,1.35156 -1.86719,-0.21875 -10.91016,-1.26172 -19.24219,-2.23047 -1.02344,4.21875 -2.13281,8.40625 -3.34766,12.55469 7.69532,3.33203 16.04688,6.95313 17.76954,7.69922 1.55859,0.67578 2.67578,1.97266 3.28125,3.45703 0.61718,1.48828 0.72265,3.16016 0.20312,4.78516 -0.53516,1.62109 -1.60156,2.91406 -2.96484,3.75781 -1.35938,0.83984 -3.02344,1.23437 -4.69141,0.85937 -1.83203,-0.41015 -10.71094,-2.39843 -18.88672,-4.22656 -1.46094,4.08594 -3.01562,8.12891 -4.65625,12.12891 7.30078,4.12109 15.23047,8.59765 16.86328,9.51953 1.48828,0.83984 2.45703,2.24219 2.91016,3.78125 0.45703,1.54297 0.39062,3.21875 -0.30469,4.77734 -0.69531,1.5625 -1.89062,2.73828 -3.33594,3.42969 -1.44531,0.69531 -3.14062,0.91016 -4.7539,0.36719 -1.77735,-0.59766 -10.39844,-3.51172 -18.33985,-6.1836 -1.88671,3.91016 -3.85546,7.76172 -5.91015,11.57032 6.83203,4.86718 14.25781,10.14843 15.78906,11.24218 1.39063,0.98438 2.20703,2.48438 2.49609,4.0625 0.28907,1.57813 0.0508,3.24219 -0.80078,4.71875 -0.85156,1.48047 -2.16797,2.51954 -3.67578,3.0586 -1.51172,0.53906 -3.21875,0.57812 -4.76562,-0.13281 -1.70703,-0.78516 -10.00782,-4.58985 -17.63672,-8.08594 -2.27344,3.67969 -4.62891,7.3125 -7.0625,10.88281 6.28906,5.5625 13.14062,11.60547 14.55469,12.85547 1.27343,1.12891 1.93359,2.70703 2.05468,4.30469 0.1211,1.60156 -0.28515,3.22656 -1.28906,4.60937 -1.00391,1.38281 -2.41797,2.28125 -3.97656,2.65625 -1.55469,0.37891 -3.25781,0.23438 -4.72266,-0.63281 -1.62109,-0.95703 -9.49219,-5.62109 -16.71875,-9.90234 -2.64453,3.42187 -5.36719,6.77734 -8.16015,10.07812 5.6875,6.19141 11.8789,12.9375 13.14843,14.32422 1.16016,1.25781 1.64844,2.89453 1.60157,4.5 -0.0469,1.60156 -0.62891,3.17969 -1.76172,4.44922 -1.14453,1.26953 -2.64453,2.01172 -4.23438,2.22265 -1.58984,0.21485 -3.26562,-0.10546 -4.6289,-1.12109 -1.51172,-1.12109 -8.85547,-6.58203 -15.59375,-11.60156 -2.98829,3.1289 -6.04297,6.1875 -9.16407,9.17578 5.00782,6.75781 10.46094,14.10547 11.58203,15.61719 1.01172,1.375 1.33204,3.05078 1.125,4.64453 -0.21875,1.58984 -0.95703,3.09765 -2.22656,4.23828 -1.26953,1.14453 -2.83594,1.72656 -4.44531,1.76953 -1.60156,0.0469 -3.23047,-0.44141 -4.48047,-1.60156 -1.38672,-1.27735 -8.12891,-7.48047 -14.3125,-13.17578 -3.28516,2.80078 -6.64062,5.52734 -10.05859,8.17578 4.27734,7.23828 8.93359,15.12109 9.89062,16.74609 0.86328,1.46485 1.00391,3.16797 0.62891,4.73047 -0.37891,1.55859 -1.26953,2.98047 -2.64844,3.98438 -1.38281,1.0039 -3,1.42187 -4.60156,1.29687 -1.60156,-0.12109 -3.17188,-0.78906 -4.29688,-2.06641 -1.24609,-1.41406 -7.28515,-8.27343 -12.83593,-14.57812 -3.56641,2.44141 -7.19141,4.80078 -10.86719,7.07812 3.49219,7.64063 7.29297,15.95313 8.07422,17.66407 0.70703,1.55078 0.67187,3.26172 0.13672,4.76953 -0.53907,1.51562 -1.57813,2.83203 -3.05469,3.6875 -1.48047,0.85547 -3.13672,1.09765 -4.70703,0.80859 -1.57813,-0.28906 -3.07422,-1.11328 -4.0625,-2.5039 -1.08985,-1.53516 -6.36328,-8.96875 -11.21875,-15.81641 -3.80469,2.05469 -7.65625,4.03125 -11.55469,5.91797 2.67188,7.94922 5.57422,16.58594 6.17187,18.37109 0.54297,1.61328 0.33204,3.3125 -0.36718,4.75781 -0.69141,1.44532 -1.85938,2.65235 -3.41016,3.34766 -1.55859,0.69141 -3.23828,0.76172 -4.77734,0.30469 -1.53125,-0.44922 -2.9375,-1.42578 -3.76953,-2.91016 -0.92188,-1.64062 -5.39063,-9.58594 -9.51172,-16.89844 -3.99219,1.64063 -8.02735,3.19922 -12.109378,4.66407 1.828125,8.1914 3.812498,17.08203 4.222658,18.91797 0.36719,1.66796 -0.0195,3.32812 -0.85547,4.69921 -0.84375,1.36329 -2.132813,2.4375 -3.753906,2.96875 -1.621094,0.52735 -3.289063,0.42188 -4.777344,-0.19531 -1.476563,-0.60937 -2.769531,-1.72656 -3.449219,-3.28906 -0.746094,-1.72656 -4.359375,-10.09375 -7.6875,-17.80078 -4.140625,1.21094 -8.320312,2.32422 -12.535156,3.35156 0.964844,8.34375 2.011719,17.40625 2.226562,19.27344 0.195313,1.69531 -0.367187,3.3125 -1.347656,4.58203 -0.972656,1.26953 -2.367187,2.20312 -4.035156,2.55859 -1.664063,0.35547 -3.320313,0.0742 -4.734375,-0.6914 -1.402344,-0.76172 -2.574219,-2.00782 -3.085938,-3.63282 -0.5625,-1.79687 -3.28125,-10.5039 -5.789062,-18.51953 -4.238281,0.76563 -8.511719,1.42578 -12.8125,2.00391 0.08594,8.40234 0.183594,17.54687 0.203125,19.43359 0.01953,1.70313 -0.714844,3.25391 -1.8125,4.41407 -1.109375,1.15625 -2.59375,1.9414 -4.285156,2.12109 -1.695313,0.17969 -3.308594,-0.27344 -4.636719,-1.18359 -1.3125,-0.90235 -2.355469,-2.26563 -2.6875,-3.9375 -0.375,-1.84766 -2.175781,-10.82032 -3.835938,-19.0625 -4.289062,0.3164 -8.605468,0.53906 -12.945312,0.66406 -0.789063,8.375 -1.648438,17.49609 -1.824219,19.37109 -0.160156,1.69922 -1.046875,3.16406 -2.265625,4.20313 -1.222656,1.03515 -2.777344,1.66015 -4.4804685,1.66406 -1.7070315,-0.004 -3.2656255,-0.62109 -4.4882815,-1.66406 -1.214844,-1.03907 -2.101562,-2.5 -2.261719,-4.19922 -0.179687,-1.87891 -1.039062,-11 -1.828125,-19.375 -4.335937,-0.125 -8.652343,-0.34766 -12.941406,-0.66406 -1.660156,8.24218 -3.460937,17.21093 -3.832031,19.05859 -0.34375,1.67578 -1.375,3.03516 -2.695313,3.94141 -1.324218,0.90234 -2.933593,1.35937 -4.632812,1.18359 -1.6875,-0.17578 -3.175781,-0.95703 -4.285156,-2.12109 -1.101563,-1.16016 -1.832032,-2.70704 -1.8125,-4.41407 0.01953,-1.88281 0.113281,-11.02734 0.203125,-19.43359 -4.296875,-0.57813 -8.574219,-1.23828 -12.808594,-2.00391 -2.507813,8.01172 -5.234375,16.71875 -5.789063,18.51563 -0.515625,1.6289 -1.683593,2.875 -3.09375,3.63672 -1.40625,0.75781 -3.0625,1.04687 -4.730468,0.6914 -1.664063,-0.35156 -3.058594,-1.28125 -4.039063,-2.55859 -0.976562,-1.26953 -1.539062,-2.88281 -1.347656,-4.58203 0.21875,-1.86328 1.265625,-10.92969 2.230469,-19.27735 -4.214844,-1.02343 -8.394532,-2.13671 -12.539063,-3.34765 -3.324219,7.70312 -6.9375,16.07422 -7.683594,17.79687 -0.679687,1.56641 -1.96875,2.6836 -3.453125,3.29297 -1.480468,0.60547 -3.148437,0.72266 -4.773437,0.19531 -1.621094,-0.52734 -2.910156,-1.59765 -3.749995,-2.96875 -0.83594,-1.36718 -1.23829,-3.03125 -0.86329,-4.69531 0.41407,-1.83594 2.398441,-10.73047 4.22266,-18.92187 -4.07812,-1.46485 -8.11328,-3.02735 -12.10937,-4.66797 -4.10938,7.3164 -8.58204,15.26172 -9.4961,16.89844 -0.83984,1.48437 -2.24219,2.46484 -3.78515,2.91406 -1.53125,0.44922 -3.20704,0.38672 -4.76563,-0.30469 -1.55469,-0.69531 -2.72656,-1.89453 -3.42578,-3.34766 -0.68359,-1.4414 -0.90625,-3.14453 -0.35938,-4.75781 0.59766,-1.78515 3.5,-10.41797 6.17188,-18.37109 -3.89844,-1.89063 -7.74609,-3.86328 -11.55469,-5.91797 -4.85156,6.84375 -10.1289,14.28125 -11.21484,15.8125 -0.98828,1.39062 -2.48438,2.21484 -4.0625,2.50391 -1.57422,0.28515 -3.23047,0.0508 -4.70703,-0.80469 -1.48047,-0.85547 -2.51563,-2.16797 -3.0586,-3.6875 -0.53125,-1.50391 -0.57422,-3.21875 0.13672,-4.76953 0.78125,-1.71094 4.58594,-10.02344 8.07422,-17.66407 -3.67578,-2.28125 -7.30469,-4.63671 -10.86719,-7.07812 -5.55078,6.30078 -11.58203,13.16406 -12.82422,14.57812 -1.13281,1.27735 -2.70703,1.94141 -4.30468,2.06641 -1.59375,0.11719 -3.21875,-0.29687 -4.59766,-1.29687 -1.37891,-1.00391 -2.27734,-2.42188 -2.65625,-3.98438 -0.375,-1.55469 -0.23437,-3.26562 0.63281,-4.73047 0.95703,-1.625 5.60547,-9.50781 9.88282,-16.74609 -3.41016,-2.64844 -6.76563,-5.37891 -10.05469,-8.17578 -6.1836,5.69531 -12.91406,11.89843 -14.30078,13.17578 -1.26172,1.15234 -2.89063,1.64844 -4.4961,1.60156 -1.59765,-0.0469 -3.17578,-0.625 -4.4375,-1.76953 -1.26562,-1.14063 -2.00781,-2.64453 -2.22656,-4.23828 -0.20312,-1.58985 0.10547,-3.27344 1.12891,-4.64453 1.11718,-1.50782 6.5664,-8.85938 11.57422,-15.61719 -3.1211,-2.98828 -6.17579,-6.04688 -9.16016,-9.17578 -6.73828,5.01562 -14.07422,10.47656 -15.58594,11.60156 -1.37109,1.01172 -3.04687,1.33594 -4.63672,1.12109 -1.58593,-0.21484 -3.09375,-0.95312 -4.22656,-2.22265 -1.14453,-1.26563 -1.72656,-2.84375 -1.76953,-4.44922 -0.043,-1.60156 0.44141,-3.24609 1.59766,-4.5 1.26953,-1.38672 7.46484,-8.13281 13.15234,-14.32813 -2.79688,-3.29687 -5.51953,-6.65234 -8.16016,-10.07812 -7.23047,4.28516 -15.09765,8.94531 -16.71484,9.90625 -1.47656,0.86328 -3.16406,1.01172 -4.73047,0.63281 -1.55078,-0.38281 -2.96875,-1.27344 -3.97266,-2.65625 -0.99609,-1.38281 -1.41796,-3.00781 -1.29296,-4.60937 0.125,-1.59375 0.78125,-3.17969 2.05859,-4.30469 1.41016,-1.25 8.25781,-7.29297 14.55078,-12.85547 -2.42969,-3.57031 -4.78516,-7.20312 -7.0625,-10.88281 -7.62891,3.49219 -15.91797,7.30078 -17.62891,8.08594 -1.55468,0.70703 -3.25781,0.67187 -4.76953,0.13281 -1.5039,-0.53906 -2.82031,-1.57813 -3.67969,-3.0586 -0.84765,-1.47656 -1.08984,-3.14062 -0.80078,-4.71875 0.28516,-1.57421 1.10938,-3.07812 2.5,-4.0664 1.53125,-1.08985 8.94922,-6.3711 15.78516,-11.23828 -2.05078,-3.8086 -4.02344,-7.66407 -5.91016,-11.57032 -7.93359,2.67188 -16.55468,5.58204 -18.33203,6.1836 -1.62109,0.53515 -3.30859,0.32812 -4.75781,-0.3711 -1.4375,-0.69531 -2.64063,-1.86328 -3.33594,-3.42578 -0.6914,-1.55859 -0.76172,-3.23437 -0.30859,-4.77734 0.45312,-1.53516 1.42578,-2.94531 2.91015,-3.78125 1.63282,-0.92188 9.5625,-5.39844 16.86329,-9.51953 -1.63282,-4 -3.19141,-8.04297 -4.65235,-12.13281 -8.17578,1.83203 -17.05078,3.82031 -18.88672,4.23437 -1.66797,0.36328 -3.32422,-0.0234 -4.6914,-0.86328 -1.35938,-0.84375 -2.4336,-2.13672 -2.96094,-3.76172 -0.52734,-1.62109 -0.41406,-3.29687 0.19141,-4.78125 0.61328,-1.47656 1.72656,-2.78125 3.28906,-3.45703 1.72265,-0.74609 10.07422,-4.36719 17.76953,-7.69922 -1.21484,-4.14844 -2.32422,-8.33594 -3.34375,-12.55859 -8.32813,0.96875 -17.37891,2.01562 -19.24219,2.23437 -1.69922,0.1875 -3.30859,-0.37109 -4.57422,-1.35156 -1.26953,-0.97656 -2.20312,-2.375 -2.55859,-4.04688 -0.35547,-1.66796 -0.0664,-3.32421 0.69141,-4.73828 0.76171,-1.40625 2.0039,-2.58203 3.6289,-3.08984 1.78906,-0.56641 10.48438,-3.28906 18.48438,-5.80469 -0.76563,-4.24219 -1.42578,-8.52344 -2,-12.83203 -8.38672,0.0898 -17.51563,0.1875 -19.39063,0.20703 -1.71094,0.0117 -3.25781,-0.71484 -4.41406,-1.82422 -1.15625,-1.10547 -1.94141,-2.59375 -2.12109,-4.28906 -0.17579,-1.69922 0.27734,-3.31641 1.18359,-4.64453 0.90625,-1.31641 2.26562,-2.35547 3.92969,-2.69531 1.84765,-0.36719 10.80078,-2.17969 19.03125,-3.83985 -0.31641,-4.29297 -0.53125,-8.61718 -0.66407,-12.96093 -8.35937,-0.79297 -17.47265,-1.65625 -19.33984,-1.83204 -1.69531,-0.16015 -3.15625,-1.04687 -4.19531,-2.27343 -1.03516,-1.22266 -1.65625,-2.78125 -1.65625,-4.48828 0,-1.70704 0.62109,-3.26563 1.65625,-4.48829 1.04297,-1.22656 2.5,-2.10937 4.19531,-2.26953 1.875,-0.17578 10.98047,-1.03906 19.33984,-1.83203 0.13282,-4.34765 0.34766,-8.67187 0.66407,-12.96094 -8.23047,-1.66406 -17.1836,-3.47265 -19.03125,-3.84375 -1.66797,-0.33984 -3.02735,-1.375 -3.9336,-2.69921 -0.90625,-1.32422 -1.35547,-2.9375 -1.17968,-4.64063 0.17578,-1.69531 0.96093,-3.18359 2.12109,-4.28906 1.15625,-1.10938 2.70312,-1.83985 4.40625,-1.81641 1.88281,0.0156 11.00781,0.11328 19.39844,0.20313 0.57422,-4.3086 1.23437,-8.58985 2,-12.83594 -8,-2.51172 -16.69532,-5.24219 -18.48828,-5.80078 -1.625,-0.51172 -2.86719,-1.6836 -3.62891,-3.09375 -0.75781,-1.41797 -1.04297,-3.06641 -0.6875,-4.74219 0.35156,-1.66797 1.28516,-3.0625 2.55859,-4.04297 1.26563,-0.98047 2.875,-1.54297 4.57032,-1.35156 1.86718,0.22266 10.91796,1.26953 19.24609,2.23437 1.01953,-4.22265 2.13281,-8.41015 3.34375,-12.55859 -7.69531,-3.33203 -16.05078,-6.95312 -17.77344,-7.70312 -1.5625,-0.67188 -2.67187,-1.96875 -3.28515,-3.45313 -0.61329,-1.48437 -0.71875,-3.16016 -0.19141,-4.78516 0.52734,-1.62109 1.59766,-2.91406 2.96094,-3.75781 1.36718,-0.83984 3.02343,-1.23437 4.6875,-0.85937 1.83593,0.41406 10.71484,2.39843 18.89062,4.23047 1.46094,-4.08985 3.01953,-8.12891 4.65235,-12.12891 -7.30079,-4.12109 -15.23047,-8.60156 -16.86329,-9.52344 -1.48437,-0.83594 -2.45703,-2.24219 -2.91015,-3.78515 -0.45703,-1.53907 -0.38672,-3.21485 0.30859,-4.77735 0.69531,-1.55859 1.89063,-2.72656 3.33594,-3.42578 1.44922,-0.69141 3.13672,-0.91016 4.75391,-0.36328 1.77734,0.59766 10.39843,3.50391 18.33593,6.18359 1.88672,-3.91015 3.85938,-7.76172 5.91016,-11.57031 -6.83594,-4.86719 -14.25781,-10.15625 -15.78516,-11.24219 -1.39062,-0.98828 -2.21875,-2.488278 -2.5,-4.066403 -0.28906,-1.582031 -0.0508,-3.242187 0.80078,-4.722656 0.85157,-1.476562 2.17188,-2.515625 3.67969,-3.054687 1.50781,-0.535157 3.21485,-0.574219 4.76563,0.136718 1.70703,0.78125 10.0039,4.589844 17.63281,8.085938 2.27734,-3.683594 4.63281,-7.3125 7.0625,-10.886719 -6.29297,-5.558594 -13.14062,-11.605469 -14.55078,-12.851562 -1.27734,-1.128907 -1.93359,-2.707032 -2.0625,-4.308594 -0.12109,-1.597656 0.29687,-3.226563 1.29687,-4.609375 1,-1.378906 2.41407,-2.273438 3.97266,-2.652344 1.55859,-0.375 3.26172,-0.234375 4.72656,0.628906 1.6211,0.964844 9.48828,5.625 16.71875,9.90625 2.64063,-3.425781 5.36328,-6.78125 8.16016,-10.078125 -5.6875,-6.195312 -11.88281,-12.941406 -13.15625,-14.328125 -1.15234,-1.253906 -1.64453,-2.894531 -1.59375,-4.503906 0.043,-1.601562 0.625,-3.175781 1.76953,-4.441406 1.13281,-1.269531 2.63672,-2.011719 4.22656,-2.222656 1.58985,-0.21875 3.26563,0.101562 4.63282,1.117187 1.50781,1.125 8.85156,6.582031 15.58984,11.601563 2.98437,-3.125 6.03906,-6.1875 9.16016,-9.175782 -5.00782,-6.757812 -10.45704,-14.105468 -11.57422,-15.621093 -1.02344,-1.367188 -1.33594,-3.050782 -1.12891,-4.640625 0.21484,-1.59375 0.95703,-3.097657 2.22656,-4.238282 1.26172,-1.140625 2.83594,-1.722656 4.4375,-1.769531 1.60157,-0.04687 3.23828,0.445313 4.49219,1.605469 1.38672,1.273437 8.12109,7.476562 14.30469,13.175781 3.28906,-2.796875 6.64453,-5.527344 10.05469,-8.175781 -4.27735,-7.242188 -8.92579,-15.128906 -9.88282,-16.746094 -0.86718,-1.46875 -1.01172,-3.175781 -0.6289,-4.738281 0.375,-1.5625 1.26953,-2.976563 2.65234,-3.980469 1.375,-1 3.00391,-1.414062 4.59766,-1.292969 1.59375,0.121094 3.17187,0.789063 4.29687,2.0625 1.2461,1.414063 7.28125,8.277344 12.83203,14.582032 3.5625,-2.4375 7.19141,-4.796875 10.86328,-7.078125 -3.48437,-7.640625 -7.28906,-15.957032 -8.07031,-17.667969 -0.71094,-1.550781 -0.67187,-3.257813 -0.13281,-4.773438 0.53516,-1.511718 1.57422,-2.832031 3.05469,-3.683593 1.47656,-0.847657 3.13281,-1.09375 4.70703,-0.804688 1.57422,0.289063 3.07422,1.113281 4.0625,2.5 1.08594,1.535156 6.36328,8.972656 11.21484,15.816406 3.8086,-2.046875 7.65235,-4.023437 11.55469,-5.910156 -2.67578,-7.957031 -5.57422,-16.597656 -6.17188,-18.375 -0.53906,-1.621094 -0.32812,-3.316406 0.36329,-4.765625 0.69531,-1.449219 1.86328,-2.648437 3.42578,-3.335937 1.55078,-0.695313 3.23047,-0.765625 4.76562,-0.3125 1.53516,0.457031 2.94141,1.425781 3.77735,2.914062 0.91796,1.636719 5.39062,9.582031 9.5,16.898438 3.99609,-1.644532 8.03125,-3.199219 12.10937,-4.660157 -1.828125,-8.195312 -3.8125,-17.097656 -4.22266,-18.929687 -0.36718,-1.664063 0.0234,-3.332031 0.86329,-4.695313 0.839839,-1.367187 2.128901,-2.4375 3.749995,-2.96875 1.621094,-0.523437 3.292969,-0.417968 4.773437,0.199219 1.484375,0.609375 2.777344,1.726563 3.449219,3.289063 0.75,1.726562 4.363281,10.09375 7.6875,17.796875 4.144531,-1.207032 8.316406,-2.320313 12.539063,-3.351563 -0.96875,-8.339844 -2.011719,-17.40625 -2.230469,-19.273437 -0.191406,-1.699219 0.367187,-3.3125 1.355469,-4.585938 0.972656,-1.269531 2.359375,-2.199219 4.035156,-2.554687 1.664062,-0.351563 3.320312,-0.07031 4.730469,0.691406 1.40625,0.765625 2.578125,2.007812 3.089843,3.636719 0.554688,1.792968 3.28125,10.503906 5.789063,18.519531 4.234375,-0.769531 8.507812,-1.425781 12.804687,-2.003906 -0.08984,-8.40625 -0.179687,-17.554688 -0.199218,-19.4375 -0.01953,-1.707032 0.707031,-3.25 1.820312,-4.414063 1.101563,-1.164062 2.585938,-1.945312 4.28125,-2.121094 1.695313,-0.179687 3.308594,0.273438 4.632813,1.1875 1.316406,0.902344 2.351562,2.265625 2.691406,3.9375 0.371094,1.847657 2.171875,10.816407 3.832031,19.0625 4.289063,-0.316406 8.597656,-0.539062 12.9375,-0.664062 0.792969,-8.378906 1.652344,-17.503906 1.832031,-19.378906 0.160157,-1.695313 1.042969,-3.160157 2.273438,-4.199219 1.210937,-1.042969 2.769531,-1.664063 4.4765625,-1.660156 1.7031245,0 3.2617185,0.625 4.4804685,1.660156 1.214844,1.042969 2.109375,2.503906 2.265625,4.203125 0.175781,1.878906 1.035156,10.996094 1.824219,19.375 4.339844,0.125 8.65625,0.347656 12.945312,0.664062 1.65625,-8.246093 3.460938,-17.21875 3.835938,-19.070312 0.339844,-1.667969 1.367187,-3.027344 2.695312,-3.933594 1.320313,-0.910156 2.933594,-1.367187 4.628907,-1.183594 1.691406,0.175782 3.179687,0.960938 4.285156,2.125 1.097656,1.164063 1.832031,2.703125 1.8125,4.417969 -0.01953,1.878906 -0.117188,11.023438 -0.203125,19.429688 4.300781,0.578125 8.574219,1.234375 12.8125,2.003906 2.503906,-8.015625 5.222656,-16.730469 5.789062,-18.523438 0.511719,-1.628906 1.679688,-2.875 3.097657,-3.632812 1.402343,-0.765625 3.058593,-1.050781 4.726562,-0.691406 1.664063,0.355468 3.058594,1.289062 4.035156,2.558593 0.976563,1.269532 1.542969,2.886719 1.34375,4.585938 -0.214843,1.867187 -1.261718,10.929687 -2.226562,19.269531 4.214844,1.027344 8.394531,2.144531 12.535156,3.351563 3.328125,-7.703125 6.941406,-16.074219 7.6875,-17.800782 0.679688,-1.5625 1.96875,-2.679687 3.457031,-3.292968 1.480469,-0.613282 3.148438,-0.71875 4.769532,-0.191407 1.625,0.53125 2.914062,1.601563 3.753906,2.96875 0.83594,1.367188 1.23047,3.03125 0.85547,4.699219 -0.40625,1.832031 -2.394533,10.730469 -4.222658,18.925781 4.078128,1.460938 8.117188,3.015625 12.105468,4.65625 4.125,-7.3125 8.59375,-15.257812 9.51563,-16.898437 0.83593,-1.484375 2.23437,-2.457031 3.77343,-2.910156 1.53516,-0.457032 3.21485,-0.386719 4.77344,0.3125 1.55078,0.691406 2.72656,1.890625 3.41406,3.339843 0.69532,1.445313 0.91407,3.144532 0.36328,4.765625 -0.59765,1.777344 -3.49999,10.414063 -6.16796,18.371094 3.89453,1.882813 7.74609,3.855469 11.54687,5.910156 4.85938,-6.847656 10.13281,-14.28125 11.22656,-15.820312 0.98438,-1.386719 2.48047,-2.210938 4.06641,-2.492188 1.57031,-0.296875 3.22656,-0.05078 4.69922,0.800782 1.48047,0.851562 2.51953,2.175781 3.05859,3.6875 0.53125,1.511718 0.57422,3.222656 -0.13672,4.773437 -0.78515,1.714844 -4.58593,10.023438 -8.07812,17.664063 3.67578,2.28125 7.30078,4.640625 10.86719,7.074218 5.54687,-6.300781 11.58984,-13.167968 12.83593,-14.578125 1.125,-1.28125 2.69532,-1.945312 4.30078,-2.0625 1.59766,-0.125 3.22266,0.289063 4.59766,1.296875 1.37891,1 2.27344,2.425782 2.65234,3.984375 0.3711,1.554688 0.23438,3.261719 -0.63281,4.734375 -0.95703,1.617188 -5.61328,9.5 -9.89062,16.742188 3.41797,2.648437 6.77343,5.375 10.05468,8.175781 6.1875,-5.699219 12.92969,-11.902344 14.31641,-13.179687 1.25,-1.15625 2.87891,-1.648438 4.49219,-1.597657 1.60156,0.03906 3.17187,0.625 4.43359,1.769532 1.26953,1.136718 2.01172,2.644531 2.22656,4.238281 0.20704,1.585937 -0.10156,3.273437 -1.125,4.644531 -1.12109,1.515625 -6.57421,8.855469 -11.58203,15.609375 3.1211,2.992188 6.17578,6.054688 9.16016,9.179688 6.74219,-5.019532 14.08594,-10.476563 15.60156,-11.601563 1.36328,-1.019531 3.03125,-1.339844 4.62891,-1.117187 1.58984,0.203125 3.08594,0.949218 4.23047,2.222656 1.13672,1.269531 1.71875,2.84375 1.76172,4.445312 0.0469,1.605469 -0.44141,3.246094 -1.60157,4.503907 -1.26953,1.382812 -7.46093,8.128906 -13.14843,14.320312 2.79296,3.300781 5.51171,6.652344 8.16015,10.082031 7.22656,-4.285156 15.09766,-8.945312 16.72266,-9.90625 1.46094,-0.863281 3.16406,-1.011718 4.72265,-0.625 1.5586,0.371094 2.97266,1.269532 3.97266,2.652344 1.00391,1.378906 1.41406,3.007813 1.28906,4.609375 -0.12109,1.597656 -0.77734,3.175781 -2.05859,4.308594 -1.41016,1.242187 -8.26172,7.289062 -14.55078,12.847656 2.43359,3.574219 4.78906,7.199219 7.0625,10.886719 7.6289,-3.5 15.93359,-7.304688 17.64062,-8.085938 1.54688,-0.710937 3.25,-0.679687 4.76172,-0.132812 1.50781,0.535156 2.82422,1.574219 3.67969,3.054687 0.84766,1.476563 1.08984,3.140625 0.80078,4.722657 -0.29297,1.574218 -1.10547,3.074216 -2.5,4.066406 -1.53125,1.08594 -8.94922,6.37109 -15.78906,11.23828 2.05469,3.80469 4.02344,7.66016 5.91015,11.56641 7.94141,-2.67578 16.5625,-5.58203 18.34375,-6.17969 1.61329,-0.54688 3.30469,-0.33594 4.75391,0.36719 1.44531,0.6914 2.64453,1.86328 3.33203,3.42187 0.69531,1.5625 0.76172,3.24219 0.3086,4.78125 -0.45704,1.53516 -1.42188,2.94531 -2.91407,3.78516 -1.63281,0.92187 -9.5625,5.39453 -16.86328,9.51562 1.64063,4 3.19141,8.04297 4.65625,12.12891 8.17578,-1.83203 17.0625,-3.81641 18.89063,-4.22656 1.66406,-0.375 3.32031,0.0156 4.6875,0.86328 1.36718,0.83594 2.43359,2.13281 2.96484,3.75781 0.52344,1.62109 0.41406,3.30078 -0.20312,4.78516 -0.60547,1.47656 -1.72266,2.77734 -3.28125,3.45312 -1.72266,0.75 -10.07422,4.36719 -17.76954,7.69922 1.21485,4.14453 2.32422,8.33203 3.34766,12.55469 8.32813,-0.96875 17.375,-2.01172 19.25,-2.23047 1.6875,-0.19141 3.29688,0.36719 4.57031,1.35547 1.26953,0.97265 2.19922,2.37109 2.55078,4.04297 0.35547,1.67187 0.0703,3.32422 -0.69531,4.73828 -0.7539,1.41015 -1.99609,2.58203 -3.6289,3.09765 -1.79297,0.5625 -10.48438,3.28516 -18.48438,5.79297 0.76953,4.2461 1.42578,8.52735 2,12.83594 8.39453,-0.0898 17.52344,-0.1875 19.40625,-0.19922 1.69922,-0.0234 3.24609,0.70313 4.40234,1.82031 1.16797,1.10157 1.94141,2.58985 2.1211,4.28907 0.17578,1.69922 -0.28125,3.3164 -1.1875,4.64062 -0.89844,1.31641 -2.25781,2.35938 -3.9336,2.69531 -1.84375,0.3711 -10.78906,2.17969 -19.02343,3.83985 0.3164,4.29297 0.53906,8.61719 0.66406,12.96484 8.35937,0.79297 17.46484,1.65625 19.33594,1.83203 z m 0,0"
           transform="matrix(1,0,0,-1,670.6181,750.3317)"
           id="path7060" />
      </g>
    </g>
  </g>
</svg>
